<svg xmlns="http://www.w3.org/2000/svg" viewBox="0 0 720 1600" xml:space="preserve">
	<g fill="#FFF">
		<path
			d="M279.3 1183.8c-1.2 2.8-2.6 5.2-4.3 7.3l-1.4-1c1.6-2 3-4.3 4.2-7l1.5.7zm9-21.8v3.4h12.6v1.6h-12.6v4.6h10.2v9.8h-20.6v-9.8h8.7v-9.6h1.7zm8.5 11.3h-17.2v6.6h17.2v-6.6zM286 1191l-1.8.4c-.4-2.7-1-5-1.6-7l1.6-.4c.7 2.1 1.3 4.5 1.8 7zm7.5-.1-1.7.4c-.7-2.8-1.5-5.2-2.4-7.3l1.6-.4c.9 2.3 1.8 4.7 2.5 7.3zm8.9-.6-1.4 1c-1.2-2.2-2.7-4.6-4.7-7.2l1.4-.9c2 2.6 3.6 5 4.7 7.1zM335.1 1167v-4.7h1.8v4.7h10.5v1.6h-10.5v5.9H350v1.7h-13.2v11.9h8.1v-8.8h1.6v11.9H345v-1.6h-18v1.6h-1.6v-11.9h1.6v8.8h8.1v-11.9H322v-1.7h13.1v-5.9h-10.7v-1.6h10.7zM385.1 1190.6c-2-.1-3.7-.3-4.9-.6-1.2-.4-2.4-1.2-3.4-2.4-.4-.6-.8-.8-1.2-.8-.9 0-2.2 1.5-4.1 4.4l-1.3-1.2c1.8-2.8 3.3-4.4 4.6-4.9V1175H370v-1.7h6.4v12c.3.2.7.4 1 .9.8 1 1.6 1.7 2.6 2.1 1 .4 2.5.6 4.3.7 1.6 0 3.6.1 6.1.1h4.5c1.5-.1 2.6-.1 3.5-.1l-.4 1.8h-7.3c-1.7-.1-3.6-.2-5.6-.2zm-7.8-22.9-1.2 1.2c-1.3-1.6-3.2-3.3-5.4-5l1.2-1.2c2.2 1.7 4 3.3 5.4 5zm6.5-.4v-5.3h1.7v5.3h5.6v-5.2h1.7v5.2h4.2v1.6h-4.2v6.9h5.3v1.7h-5.3v9.5H391v-9.5h-6.1c-.8 4-2.5 6.9-5 8.8l-1-1.4c2.2-1.6 3.6-4 4.4-7.4h-4.5v-1.7h4.8c.2-1.3.3-2.7.3-4.2v-2.7H380v-1.6h3.8zm1.7 4c0 1.6-.1 3.1-.3 4.5h5.9v-6.9h-5.6v2.4zM425.5 1163l1.4-1c3 2.1 5.4 5.7 7.3 10.8 3 7.7 7.1 13.2 12.2 16.5l-1.1 1.4c-5.3-3.2-9.5-9.1-12.8-17.5-.3-.7-.5-1.4-.8-2-2.1 8.5-6.6 15-13.4 19.5l-1.1-1.5c7-4.6 11.5-11.3 13.5-20.1-1.3-2.5-3.1-4.6-5.2-6.1z" />
	</g>
	<path fill="none" stroke="#FFF" stroke-width="2.843" stroke-miterlimit="10"
		d="M445 1206.4H275c-15.6 0-28.3-12.8-28.3-28.3 0-15.6 12.8-28.3 28.3-28.3h170c15.6 0 28.3 12.8 28.3 28.3.1 15.6-12.7 28.3-28.3 28.3z" />
</svg>