<?xml version="1.0" encoding="utf-8"?>
<!-- Generator: Adobe Illustrator 25.0.0, SVG Export Plug-In . SVG Version: 6.00 Build 0)  -->
<svg version="1.1" id="左滑" xmlns="http://www.w3.org/2000/svg" xmlns:xlink="http://www.w3.org/1999/xlink" x="0px"
	y="0px" viewBox="0 0 1080 1920" enable-background="new 0 0 1080 1920" xml:space="preserve"
	style="pointer-events:none">
	<g>
		<animateTransform accumulate="none" additive="replace" attributeName="transform" begin="0" calcMode="spline"
			dur="2s" fill="freeze" restart="always" type="translate" values="110 0;0 0;0 0"
			keySplines=".42,0,.58,1;.42,0,.58,1" repeatCount="indefinite"></animateTransform>

		<animate accumulate="none" additive="replace" attributeName="opacity" begin="0" calcMode="spline" dur="2s"
			fill="freeze" keySplines=".42,0,.58,1;.42,0,.58,1;.42,0,.58,1" repeatCount="indefinite" restart="always"
			values="0;1;1;0"></animate>
		<g id="阴影" opacity="0.1">
			<path d="M136.8,1801.7c0.8-0.8,0.8-2,0-2.7l-18.3-18.2l18.3-18.2c0.8-0.8,0.8-2,0-2.7c-0.8-0.8-2-0.8-2.7,0l-18.7,18.6
			c-0.6,0.6-1,1.5-1,2.4c0,0.9,0.3,1.7,1,2.4l18.7,18.6C134.8,1802.5,136,1802.5,136.8,1801.7L136.8,1801.7z" />
			<path d="M160.3,1801.7c0.8-0.8,0.8-2,0-2.7l-18.3-18.2l18.3-18.2c0.8-0.8,0.8-2,0-2.7c-0.8-0.8-2-0.8-2.7,0l-18.7,18.6
			c-0.6,0.6-1,1.5-1,2.4c0,0.9,0.3,1.7,1,2.4l18.7,18.6C158.3,1802.5,159.5,1802.5,160.3,1801.7L160.3,1801.7z" />
			<path d="M183.7,1801.7c0.8-0.8,0.8-2,0-2.7l-18.3-18.2l18.3-18.2c0.8-0.8,0.8-2,0-2.7c-0.8-0.8-2-0.8-2.7,0l-18.7,18.6
			c-0.6,0.6-1,1.5-1,2.4c0,0.9,0.3,1.7,1,2.4l18.7,18.6C181.7,1802.5,183,1802.5,183.7,1801.7L183.7,1801.7z" />
		</g>
		<g id="箭头">
			<path fill="#FFFFFF" d="M134.5,1801.7c0.8-0.8,0.8-2,0-2.7l-18.2-18.2l18.2-18.2c0.8-0.8,0.8-2,0-2.7c-0.8-0.8-2-0.8-2.7,0
			l-18.6,18.6c-0.6,0.6-1,1.5-1,2.4s0.3,1.7,1,2.4l18.6,18.6C132.5,1802.5,133.7,1802.5,134.5,1801.7L134.5,1801.7z" />
			<path fill="#FFFFFF" d="M157.8,1801.7c0.8-0.8,0.8-2,0-2.7l-18.2-18.2l18.2-18.2c0.8-0.8,0.8-2,0-2.7c-0.8-0.8-2-0.8-2.7,0
			l-18.6,18.6c-0.6,0.6-1,1.5-1,2.4s0.3,1.7,1,2.4l18.6,18.6C155.8,1802.5,157,1802.5,157.8,1801.7L157.8,1801.7z" />
			<path fill="#FFFFFF" d="M181.1,1801.7c0.8-0.8,0.8-2,0-2.7l-18.2-18.2l18.2-18.2c0.8-0.8,0.8-2,0-2.7c-0.8-0.8-2-0.8-2.7,0
			l-18.6,18.6c-0.6,0.6-1,1.5-1,2.4s0.3,1.7,1,2.4l18.6,18.6C179.1,1802.5,180.4,1802.5,181.1,1801.7L181.1,1801.7z" />
		</g>
	</g>
</svg>