<svg xmlns="http://www.w3.org/2000/svg" viewBox="0 0 750 960" style="enable-background:new 0 0 750 960" xml:space="preserve"><path style="fill:#abbcd6" d="M239.251 236.587s6.338-32.668 6.826-48.27c0-5.851-12.189-8.289-19.503-10.239-7.314-1.95-80.938-25.842-80.938-25.842s-17.553-6.339-16.578 25.354c.975 31.693 54.946 57.466 54.946 57.466l55.247 1.531z"/><path style="fill:#d9e6ff" d="M137.981 246.668s6.161-36.405 6.161-42.006c0-5.601-7.281-11.762-24.644-15.682s-90.174-21.843-90.174-21.843-28.004 3.921-21.283 47.607c2.8 10.642 63.29 35.285 63.29 35.285l66.65-3.361z"/><path style="fill:#abbcd6" d="m148.623 349.724 20.723-114.257s35.845-14.562 71.131 0c-2.24 27.444-12.322 152.343-12.322 152.343l-75.611-16.803-3.921-21.283z"/><path style="fill:#c8d4e8" d="M652.699 555.275s59.369 16.242 77.852 34.725 6.161 50.968-9.521 52.648c-14.002 1.68-43.687-23.524-43.687-23.524 7.841 14.002 11.202 21.283 4.481 28.004s-35.086-27.042-41.907-35.644-4.58-17.004-4.58-17.004l17.362-39.205z"/><path style="fill:#c8d4e8" d="m523.879 548.554 110.337 70.571s30.805-37.526 25.764-63.85c-23.524-16.803-67.77-47.607-67.77-47.607l-68.331 40.886z"/><path style="fill:#fff" d="M503.156 732.821s1.68 49.848 34.725 72.811c16.803 10.082 38.646-14.562 36.406-24.084s-17.363-36.406-16.242-41.446c4.481 8.961 12.322 18.483 20.723 15.122 8.401-3.361 2.24-22.403-7.281-30.245s-19.603-10.082-22.403-16.803-45.928 24.645-45.928 24.645z"/><path style="fill:#fafcff" d="m65.17 248.908 10.642 159.624s5.041 31.925 48.167 54.328 90.734 40.326 118.738 44.807c28.004 4.481 122.098 42.566 131.06 52.648 8.961 10.081 124.899 179.787 124.899 179.787s40.326-21.283 50.408-31.925c-8.961-24.084-77.292-161.864-77.292-161.864l-14.562-76.732-172.506-90.734-56.008-14.002-73.931-1.68-15.122-120.978c-.002 0-45.929-10.081-74.493 6.721z"/><path style="fill:#b1c2dd" d="M429.423 639.256c26.77 38.766 55.142 80.213 65.329 95.108l8.404-7.143-63.94-90.465-9.793 2.5z"/><path style="fill:#b1c2dd" d="M445.467 633.686c-19.043-1.68-57.129-75.611-57.129-75.611s-6.161-12.322-12.322-13.442c-23.524-3.361-125.459-53.768-125.459-53.768l2.801 19.205c35.91 9.656 112.383 41.206 120.418 50.245 3.54 3.983 28.897 40.425 52.088 73.931 9.925 5.318 13.554.728 19.603-.56zM123.979 462.861c41.758 21.693 87.716 39.184 116.013 44.339-1.237-6.15-3.181-15.517-6.236-29.777-82.332-7.841-133.3-59.369-133.3-59.369l-13.738 13.738c7.076 9.901 18.602 21.376 37.261 31.069zM71.891 254.509l-6.187 2.406 10.108 151.617s1.26 7.98 7.91 18.76c3.502-3.158 8.208-7.856 14.494-14.84-16.803 2.241-26.325-157.943-26.325-157.943z"/><path style="fill:#db6445" d="M268.481 421.975s-15.682 7.841-16.242 48.727c0 20.163 9.521 42.006 9.521 42.006s-18.483 3.36-28.004-5.041c-6.161-13.442-9.521-40.326-4.481-59.369 5.041-19.043 20.163-33.045 20.163-33.045l19.043 6.722z"/><path style="fill:#7c8f9b" d="M285.283 430.936s8.401 68.33 45.927 107.536c-17.923-6.161-42.006-14.002-43.687-17.363-1.68-3.36-34.007-80.552-27.925-95.444 6.082-14.892 25.685 5.271 25.685 5.271z"/><path style="fill:#aec3e5" d="M235.398 382.501s-7.803-18.776 5.079-31.097c12.882-12.322 59.929-39.206 66.09-40.886 6.161-1.68 26.324-11.762 58.249 4.481 31.925 16.242 121.524 63.857 121.524 63.857l-21.269 16.795s-68.89 52.088-80.092 51.528c-11.202-.561-149.581-64.678-149.581-64.678z"/><path style="fill:#95a9c6" d="M379.195 478.128s11.944 8.816 26.506-4.066c14.562-12.882 43.126-31.925 43.126-31.925l22.963-42.006-5.072-9.016-81.741 56.063-5.782 30.95z"/><path style="fill:#718db5" d="m245.26 416.885-11.144-38.85c-1.527-5.322 4.049-9.891 8.968-7.348l142.072 73.456a6.313 6.313 0 0 1 3.263 4.238l5.621 25.293c1.121 5.046-3.965 9.227-8.699 7.151l-136.549-59.899a6.318 6.318 0 0 1-3.532-4.041z"/><path style="fill:#db6445" d="M549.083 546.873s-20.163 22.963-69.45 8.401-56.569-68.33-56.008-74.491c.56-6.161 2.24-18.483 10.642-25.204 8.401-6.721 17.363 52.088 17.363 52.088l25.764 20.723 37.526 15.682 34.163 2.801z"/><circle style="fill:#fff" cx="523.599" cy="463.141" r="92.134"/><linearGradient id="a" gradientUnits="userSpaceOnUse" x1="457.229" y1="482.184" x2="615.215" y2="482.184"><stop offset="0" style="stop-color:#1b023b"/><stop offset=".51" style="stop-color:#1f0a4f"/><stop offset="1" style="stop-color:#120f2d"/></linearGradient><path style="fill:url(#a)" d="M615.173 471.822c-1.12 37.526-37.526 83.453-91.574 83.453-40.606 0-66.37-33.605-66.37-73.371 0-26.604 22.963-72.811 91.854-72.811 62.45 0 66.65 34.165 66.09 62.729z"/><path style="fill:#eef6ff" d="M473.472 447.178s20.163-36.405 82.332-35.285c62.169 1.12 58.935 65.624 58.935 65.624s1.554-12.219.994-18.758-2.25-57.964-61.609-59.187c-54.328-1.12-77.292 17.363-91.294 40.326 3.921 3.36 10.642 7.28 10.642 7.28z"/><path style="fill:#bbd7ff" d="M472.352 444.938s21.283-35.285 83.453-34.165c62.169 1.12 58.935 66.744 58.935 66.744s1.554-12.219.994-18.758-2.25-63.004-61.609-64.228c-54.328-1.12-81.212 22.403-95.214 45.367 3.919 3.36 13.441 5.04 13.441 5.04z"/><path style="fill:#656e7c" d="M481.873 462.861c0 14.848-10.766 26.884-21.283 26.884s-19.043-12.036-19.043-26.884 9.646-29.124 20.163-29.124 20.163 10.641 20.163 29.124z"/><ellipse style="fill:#9ea8b7" cx="460.59" cy="462.861" rx="19.043" ry="26.884"/><ellipse style="fill:#d6deea" cx="460.59" cy="462.861" rx="15.076" ry="21.283"/><ellipse style="fill:#acb6c1" cx="460.59" cy="462.861" rx="13.092" ry="18.483"/><ellipse style="fill:#e5f0f9" cx="460.59" cy="462.861" rx="11.505" ry="16.242"/><path style="fill:#db6445" d="M156.373 363.202s-31.274 6.685-35.754 21.247c-5.363 17.429-11.511 43.756-30.679 51.563-5.726 2.206-9.565-8.005-7.193-10.346 2.373-2.341 21.069-24.974 26.11-44.577 3.921-18.483 32.071-22.352 45.16-24.058.414 3.309.733 5.234.733 5.234l.033.901 1.59.036zM498.676 740.102s-8.484-2.458-6.202-9.07 38.763-19.847 52.447-32.832c2.725 1.473 6.403 6.617 4.163 9.978-2.241 3.36-39.767 29.124-50.408 31.924zM140.991 252.826s-30.089-9.079-75.078 7.224c-2.606-1-1.863-10.021-.743-11.141 1.12-1.12 16.242-10.642 36.405-10.642s38.086 3.921 38.086 3.921 3.78 6.715 1.33 10.638z"/><path style="fill:#b5503c" d="M167.714 244.464s48.201-8.951 71.963.827c2.159-.046 1.359-8.144.799-9.825-.56-1.68-15.682-7.841-28.004-7.841s-37.526 3.361-43.126 7.841c-2.24 2.801-3.264 9.594-1.632 8.998zM634.216 619.124s-11.561-3.155-11.661-7.459c4.28-4.126 29.194-43.901 29.669-61.908 2.63-2.968 7.756 5.517 7.756 5.517s4.481 18.483-12.882 47.607c-10.082 16.243-12.882 16.243-12.882 16.243z"/><path style="fill:#db6445" d="M501.939 607.66s-44.207 28.14-78.343 23.163c-2.772 5.104 2.829 11.517 7.87 11.391 5.041-.126 34.597 3.555 76.947-21.249 3.489-5.361-.41-12.448-6.474-13.305z"/><path style="fill:#d82e21" d="M405.702 569.277s38.086-.56 51.528-14.002c7.281 18.483 11.762 29.124 11.762 29.124s-33.605 15.122-51.528 8.401l-11.762-23.523z"/><path style="fill:#47688e" d="m349.856 436.665 24.318 9.568a4.56 4.56 0 0 1 2.828 3.493l1.651 9.897c.612 3.669-3.191 6.488-6.524 4.834l-24.816-12.315a4.556 4.556 0 0 1-2.474-3.358l-1.153-7.15c-.563-3.487 2.883-6.262 6.17-4.969z"/><circle style="fill:#47688e" cx="331.21" cy="444.378" r="2.8"/><circle style="fill:#47688e" cx="320.009" cy="438.777" r="2.8"/><circle style="fill:#47688e" cx="309.367" cy="433.736" r="2.8"/><circle style="fill:#47688e" cx="299.285" cy="429.816" r="2.8"/><path style="fill:#47688e" d="m244.397 381.088 8.401 30.805 6.161 3.361-8.401-30.245zM253.359 385.009l8.401 30.805 6.161 3.36-8.402-30.244zM262.32 390.05l8.401 30.804 6.161 3.361-8.401-30.245zM323.149 337.791l24.359-15.788c1.241-.804.978-2.692-.435-3.126l-2.464-.758a1.742 1.742 0 0 0-1.492.224l-23.237 15.801c-1.073.729-1 2.333.134 2.963l1.341.745c.564.313 1.254.29 1.794-.061zM315.075 331.808l20.133-12.885c1.768-1.131 1.241-3.842-.822-4.229l-1.739-.326a2.313 2.313 0 0 0-1.702.343l-19.258 12.693c-1.425.939-1.38 3.044.083 3.922l.864.518c.754.452 1.7.438 2.441-.036z"/><circle style="fill:#f8f9ff" cx="380.438" cy="380.95" r="27.618"/><linearGradient id="b" gradientUnits="userSpaceOnUse" x1="353.747" y1="379.639" x2="407.129" y2="379.639"><stop offset="0" style="stop-color:#1b023b"/><stop offset=".51" style="stop-color:#1f0a4f"/><stop offset="1" style="stop-color:#120f2d"/></linearGradient><circle style="fill:url(#b)" cx="380.438" cy="379.639" r="26.691"/><circle style="fill:#db6445" cx="380.438" cy="377.804" r="25.393"/><circle style="fill:#ef9786" cx="380.438" cy="377.804" r="10.194"/></svg>