<svg xmlns="http://www.w3.org/2000/svg" xmlns:xlink="http://www.w3.org/1999/xlink" viewBox="0 0 1200 1200" xml:space="preserve"><defs><circle id="a" cx="638.5" cy="731.5" r="295.5"/></defs><clipPath id="b"><use xlink:href="#a" overflow="visible"/></clipPath><g clip-path="url(#b)"><defs><path id="c" d="M328 429h611v634H328z"/></defs><clipPath id="d"><use xlink:href="#c" overflow="visible"/></clipPath><g clip-path="url(#d)"><defs><path id="e" d="M343 436h591v591H343z"/></defs><clipPath id="f"><use xlink:href="#e" overflow="visible"/></clipPath><path clip-path="url(#f)" fill="#9124FF" d="M338 431h601v601H338z"/></g><g clip-path="url(#d)"><defs><circle id="g" cx="747" cy="487" r="58"/></defs><clipPath id="h"><use xlink:href="#g" overflow="visible"/></clipPath><g clip-path="url(#h)"><defs><path id="i" d="M343 436h591v591H343z"/></defs><clipPath id="j"><use xlink:href="#i" overflow="visible"/></clipPath><g clip-path="url(#j)"><defs><path id="k" d="M684 424h134v128H684z"/></defs><clipPath id="l"><use xlink:href="#k" overflow="visible"/></clipPath><g clip-path="url(#l)"><defs><path id="m" d="M689 436h116v109H689z"/></defs><clipPath id="n"><use xlink:href="#m" overflow="visible"/></clipPath><path clip-path="url(#n)" fill="#4F069A" d="M684 424h126v126H684z"/></g><g clip-path="url(#l)"><defs><circle id="o" cx="759.9" cy="493.9" r="58"/></defs><clipPath id="p"><use xlink:href="#o" overflow="visible"/></clipPath><g clip-path="url(#p)"><defs><path id="q" d="M689 436h116v109H689z"/></defs><clipPath id="r"><use xlink:href="#q" overflow="visible"/></clipPath><path clip-path="url(#r)" fill="#6603C9" d="M696.9 430.9h126v126h-126z"/></g></g></g></g></g><g clip-path="url(#d)"><defs><circle id="s" cx="524" cy="740" r="47"/></defs><clipPath id="t"><use xlink:href="#s" overflow="visible"/></clipPath><g clip-path="url(#t)"><defs><path id="u" d="M343 436h591v591H343z"/></defs><clipPath id="v"><use xlink:href="#u" overflow="visible"/></clipPath><g clip-path="url(#v)"><defs><path id="w" d="M472 688h110v105H472z"/></defs><clipPath id="x"><use xlink:href="#w" overflow="visible"/></clipPath><g clip-path="url(#x)"><defs><path id="y" d="M477 693h94v94h-94z"/></defs><clipPath id="z"><use xlink:href="#y" overflow="visible"/></clipPath><path clip-path="url(#z)" fill="#4F069A" d="M472 688h104v104H472z"/></g><g clip-path="url(#x)"><defs><circle id="A" cx="534.9" cy="745.9" r="47"/></defs><clipPath id="B"><use xlink:href="#A" overflow="visible"/></clipPath><g clip-path="url(#B)"><defs><path id="C" d="M477 693h94v94h-94z"/></defs><clipPath id="D"><use xlink:href="#C" overflow="visible"/></clipPath><path clip-path="url(#D)" fill="#6603C9" d="M482.9 693.9h104v104h-104z"/></g></g></g></g></g><g clip-path="url(#d)"><defs><circle id="E" cx="658" cy="1016" r="47"/></defs><clipPath id="F"><use xlink:href="#E" overflow="visible"/></clipPath><g clip-path="url(#F)"><defs><path id="G" d="M343 436h591v591H343z"/></defs><clipPath id="H"><use xlink:href="#G" overflow="visible"/></clipPath><g clip-path="url(#H)"><defs><path id="I" d="M606 964h110v105H606z"/></defs><clipPath id="J"><use xlink:href="#I" overflow="visible"/></clipPath><g clip-path="url(#J)"><defs><path id="K" d="M611 969h94v58h-94z"/></defs><clipPath id="L"><use xlink:href="#K" overflow="visible"/></clipPath><path clip-path="url(#L)" fill="#4F069A" d="M606 964h104v104H606z"/></g><g clip-path="url(#J)"><defs><circle id="M" cx="668.9" cy="1021.9" r="47"/></defs><clipPath id="N"><use xlink:href="#M" overflow="visible"/></clipPath><g clip-path="url(#N)"><defs><path id="O" d="M611 969h94v58h-94z"/></defs><clipPath id="P"><use xlink:href="#O" overflow="visible"/></clipPath><path clip-path="url(#P)" fill="#6603C9" d="M616.9 969.9h104v104h-104z"/></g></g></g></g></g><g clip-path="url(#d)"><defs><circle id="Q" cx="375" cy="630" r="47"/></defs><clipPath id="R"><use xlink:href="#Q" overflow="visible"/></clipPath><g clip-path="url(#R)"><defs><path id="S" d="M343 436h591v591H343z"/></defs><clipPath id="T"><use xlink:href="#S" overflow="visible"/></clipPath><g clip-path="url(#T)"><defs><path id="U" d="M323 578h110v105H323z"/></defs><clipPath id="V"><use xlink:href="#U" overflow="visible"/></clipPath><g clip-path="url(#V)"><defs><path id="W" d="M343 583h79v94h-79z"/></defs><clipPath id="X"><use xlink:href="#W" overflow="visible"/></clipPath><path clip-path="url(#X)" fill="#4F069A" d="M323 578h104v104H323z"/></g><g clip-path="url(#V)"><defs><circle id="Y" cx="385.9" cy="635.9" r="47"/></defs><clipPath id="Z"><use xlink:href="#Y" overflow="visible"/></clipPath><g clip-path="url(#Z)"><defs><path id="aa" d="M343 583h79v94h-79z"/></defs><clipPath id="ab"><use xlink:href="#aa" overflow="visible"/></clipPath><path clip-path="url(#ab)" fill="#6603C9" d="M333.9 583.9h104v104h-104z"/></g></g></g></g></g><g clip-path="url(#d)"><defs><circle id="ac" cx="550" cy="600" r="33"/></defs><clipPath id="ad"><use xlink:href="#ac" overflow="visible"/></clipPath><g clip-path="url(#ad)"><defs><path id="ae" d="M343 436h591v591H343z"/></defs><clipPath id="af"><use xlink:href="#ae" overflow="visible"/></clipPath><g clip-path="url(#af)"><defs><path id="ag" d="M512 562h78v76h-78z"/></defs><clipPath id="ah"><use xlink:href="#ag" overflow="visible"/></clipPath><g clip-path="url(#ah)"><defs><path id="ai" d="M517 567h66v66h-66z"/></defs><clipPath id="aj"><use xlink:href="#ai" overflow="visible"/></clipPath><path clip-path="url(#aj)" fill="#4F069A" d="M512 562h76v76h-76z"/></g><g clip-path="url(#ah)"><defs><circle id="ak" cx="557" cy="604" r="33"/></defs><clipPath id="al"><use xlink:href="#ak" overflow="visible"/></clipPath><g clip-path="url(#al)"><defs><path id="am" d="M517 567h66v66h-66z"/></defs><clipPath id="an"><use xlink:href="#am" overflow="visible"/></clipPath><path clip-path="url(#an)" fill="#6603C9" d="M519 566h76v76h-76z"/></g></g></g></g></g><g clip-path="url(#d)"><defs><circle id="ao" cx="837" cy="683" r="33"/></defs><clipPath id="ap"><use xlink:href="#ao" overflow="visible"/></clipPath><g clip-path="url(#ap)"><defs><path id="aq" d="M343 436h591v591H343z"/></defs><clipPath id="ar"><use xlink:href="#aq" overflow="visible"/></clipPath><g clip-path="url(#ar)"><defs><path id="as" d="M799 645h78v76h-78z"/></defs><clipPath id="at"><use xlink:href="#as" overflow="visible"/></clipPath><g clip-path="url(#at)"><defs><path id="au" d="M804 650h66v66h-66z"/></defs><clipPath id="av"><use xlink:href="#au" overflow="visible"/></clipPath><path clip-path="url(#av)" fill="#4F069A" d="M799 645h76v76h-76z"/></g><g clip-path="url(#at)"><defs><circle id="aw" cx="844" cy="687" r="33"/></defs><clipPath id="ax"><use xlink:href="#aw" overflow="visible"/></clipPath><g clip-path="url(#ax)"><defs><path id="ay" d="M804 650h66v66h-66z"/></defs><clipPath id="az"><use xlink:href="#ay" overflow="visible"/></clipPath><path clip-path="url(#az)" fill="#6603C9" d="M806 649h76v76h-76z"/></g></g></g></g></g><g clip-path="url(#d)"><defs><circle id="aA" cx="705.5" cy="675.5" r="24.5"/></defs><clipPath id="aB"><use xlink:href="#aA" overflow="visible"/></clipPath><g clip-path="url(#aB)"><defs><path id="aC" d="M343 436h591v591H343z"/></defs><clipPath id="aD"><use xlink:href="#aC" overflow="visible"/></clipPath><g clip-path="url(#aD)"><defs><path id="aE" d="M676 646h59v59h-59z"/></defs><clipPath id="aF"><use xlink:href="#aE" overflow="visible"/></clipPath><g clip-path="url(#aF)"><defs><path id="aG" d="M681 651h49v49h-49z"/></defs><clipPath id="aH"><use xlink:href="#aG" overflow="visible"/></clipPath><path clip-path="url(#aH)" fill="#4F069A" d="M676 646h59v59h-59z"/></g><g clip-path="url(#aF)"><defs><circle id="aI" cx="710.4" cy="678.4" r="24.5"/></defs><clipPath id="aJ"><use xlink:href="#aI" overflow="visible"/></clipPath><g clip-path="url(#aJ)"><defs><path id="aK" d="M681 651h49v49h-49z"/></defs><clipPath id="aL"><use xlink:href="#aK" overflow="visible"/></clipPath><path clip-path="url(#aL)" fill="#6603C9" d="M680.9 648.9h59v59h-59z"/></g></g></g></g></g></g><defs><path id="aM" d="m520.6 978.7 491.3-95.7c16.5-5.3 26.5-11.6 29.9-19.1 5.1-11.2 4.8-16.8 4.8-25.2s1.2-13.8-7-30c-5.5-10.8-36-68.1-91.6-172-7.3-12.9-27.1-16.5-59.3-10.8-48.3 8.6-580.8 108.1-587.9 109.5-7.1 1.4-16.4 3.8-19.8 6.2-8.3 5.5-18.5 22.9-10.4 46.3 5.4 15.6 31.2 82.9 77.6 202.2 11.9 14.2 27.9 19.1 48 14.5 24.8-5.2 66.4-13.9 124.4-25.9z"/></defs><clipPath id="aN"><use xlink:href="#aM" overflow="visible"/></clipPath><g clip-path="url(#aN)"><defs><path id="aO" d="M262 613h791v399H262z"/></defs><clipPath id="aP"><use xlink:href="#aO" overflow="visible"/></clipPath><g clip-path="url(#aP)"><defs><path id="aQ" d="M262 620h786v390H262z"/></defs><clipPath id="aR"><use xlink:href="#aQ" overflow="visible"/></clipPath><path clip-path="url(#aR)" fill="#7C73FF" d="M262.5 618.3h789.1v392.9H262.5z"/></g><g clip-path="url(#aP)"><defs><path id="aS" d="M282.3 738.4c-5.1 7.5-5.1 19.2 0 35s31.3 83.1 78.5 201.9c4.7 8.3 17.3 10.6 37.8 6.9 20.5-3.7 219.9-43.5 598.2-119.6 45.3-8.5 60.4-24.4 45.4-47.8l-99-197.5-37.9-3.9-623 125z"/></defs><clipPath id="aT"><use xlink:href="#aS" overflow="visible"/></clipPath><g clip-path="url(#aT)"><defs><path id="aU" d="M262 620h786v390H262z"/></defs><clipPath id="aV"><use xlink:href="#aU" overflow="visible"/></clipPath><path clip-path="url(#aV)" fill="#322B41" d="M273.5 608.5h779.3V989H273.5z"/></g></g><g clip-path="url(#aP)"><defs><path id="aW" d="M918.3 884.5c11.6-2.9 33.2-7.4 40.5-9.2 7.3-1.8 12.3 8.3 2.9 11.1-9.3 2.8-32.8 7.7-41.8 9.6-8.9 1.9-13.2-8.6-1.6-11.5z"/></defs><clipPath id="aX"><use xlink:href="#aW" overflow="visible"/></clipPath><g clip-path="url(#aX)"><defs><path id="aY" d="M262 620h786v390H262z"/></defs><clipPath id="aZ"><use xlink:href="#aY" overflow="visible"/></clipPath><path clip-path="url(#aZ)" fill="#5047C5" d="M906.3 870.1h65.6v31.1h-65.6z"/></g></g></g><defs><path id="ba" d="M605.6 693.7 307 750.6c-10 3.4-12.5 11.9-7.5 25.4 5 13.5 28.8 73.7 71.6 180.4 3.7 8.8 13.9 11.7 30.5 8.6 16.6-3 217.3-42.5 602-118.3 17-6.5 22.6-15.3 16.9-26.6-2.8-5.6-15.8-35.2-29.9-60.2-2.8-4.9-18.4 4.7-21.6-2.2-5.3-11.5-14.4-29.3-21.3-43.8-1.6-3.3 15.3-7.6 13.4-11.5-4.4-8.6-12.7-24.5-24.9-47.7-5.9-12.3-17.3-17.4-34.3-15.3-17 2.2-115.8 20.3-296.3 54.3z"/></defs><clipPath id="bb"><use xlink:href="#ba" overflow="visible"/></clipPath><g clip-path="url(#bb)"><defs><path id="bc" d="M292 634h736v338H292z"/></defs><clipPath id="bd"><use xlink:href="#bc" overflow="visible"/></clipPath><g clip-path="url(#bd)"><defs><path id="be" d="M294 637h733v332H294z"/></defs><clipPath id="bf"><use xlink:href="#be" overflow="visible"/></clipPath><path clip-path="url(#bf)" fill="#C0DCFE" d="M292 634h735.6v337.2H292z"/></g><g clip-path="url(#bd)"><defs><path id="bg" d="m565.4 688-54.8 272.1 54.8-12.4 52.2-279.8z"/></defs><clipPath id="bh"><use xlink:href="#bg" overflow="visible"/></clipPath><g clip-path="url(#bh)"><defs><path id="bi" d="M294 637h733v332H294z"/></defs><clipPath id="bj"><use xlink:href="#bi" overflow="visible"/></clipPath><path clip-path="url(#bj)" fill="#DBEBFF" d="M505.6 662.9h117.1V965H505.6z"/></g></g><g clip-path="url(#bd)"><defs><path id="bk" d="m629.2 682.9-48.5 277.2 12.5-5.4L649 676.2z"/></defs><clipPath id="bl"><use xlink:href="#bk" overflow="visible"/></clipPath><g clip-path="url(#bl)"><defs><path id="bm" d="M294 637h733v332H294z"/></defs><clipPath id="bn"><use xlink:href="#bm" overflow="visible"/></clipPath><path clip-path="url(#bn)" fill="#DBEBFF" d="M575.7 671.2H654v293.9h-78.3z"/></g></g></g><defs><path id="bo" d="M841.4 466.5c-8.3 27.8-20.2 67.9-73.7 122.2C732 625 721 663.1 734.7 703c-3.9-38.7 11.2-71.3 45.4-97.7C831.4 565.7 904 466.2 904 376.7c0-28.5-8.9-42.7-26.6-42.7-26.6.1-27.7 104.7-36 132.5z"/></defs><clipPath id="bp"><use xlink:href="#bo" overflow="visible"/></clipPath><path clip-path="url(#bp)" fill="#FF37F2" d="M724 329h185v379H724z"/><defs><path id="bq" d="M898.9 344.4c9.5-27.3 22.3-49.1 45.3-38.7 23 10.4 14.3 52.6-5.7 99.4-20 46.8-76.2 150.3-122.4 184.3-46.3 34.1-68.8 65.1-74.1 105.6-1.2-46.8 18.6-85.8 59.6-117.2 61.6-47 87.8-206.1 97.3-233.4z"/></defs><clipPath id="br"><use xlink:href="#bq" overflow="visible"/></clipPath><path clip-path="url(#br)" fill="#5AFFC9" d="M737 298h226v402H737z"/><defs><path id="bs" d="M833 611c69.8-41.3 116.9-85.6 141.2-132.9 14.5-35.1 29-49.7 43.4-43.9 21.6 8.7.2 55.9-50.9 104.8-34 32.6-78.6 56.6-133.7 72z"/></defs><clipPath id="bt"><use xlink:href="#bs" overflow="visible"/></clipPath><path clip-path="url(#bt)" fill="#FFEA1A" d="M828 428h203v188H828z"/><defs><path id="bu" d="M761 718c24-48 56.6-79.4 97.9-94.2 41.3-14.8 76.6-40.8 105.8-78 7.5-8.6 15.9-11.5 25.4-8.8 14.2 4.2 27.8 54.9-97 94.9-73.8 27.8-117.8 56.5-132.1 86.1z"/></defs><clipPath id="bv"><use xlink:href="#bu" overflow="visible"/></clipPath><path clip-path="url(#bv)" fill="#43FCF6" d="M756 531h248v192H756z"/><defs><path id="bw" d="M764 791c34.8-57.8 68-94.4 99.6-109.7 47.4-23 70.8-55 81.9-61.5 11.1-6.4 22-9 30.4 0 8.4 9-6.4 54.2-76.3 69.8C853 700 807.8 733.8 764 791z"/></defs><clipPath id="bx"><use xlink:href="#bw" overflow="visible"/></clipPath><path clip-path="url(#bx)" fill="#F239FF" d="M759 609h224v187H759z"/><defs><path id="by" d="M983.7 376c5-92.2 4.3-148.6-2.1-169.4-9.5-31.1-40.9-62.3-30.6-72.1 10.2-9.7 46 7.4 54.2 68 5.5 40.5-1.7 98.3-21.5 173.5z"/></defs><clipPath id="bz"><use xlink:href="#by" overflow="visible"/></clipPath><path clip-path="url(#bz)" fill="#FF33E1" d="M944 127h68v254h-68z"/><defs><path id="bA" d="m1094 369 25 19.1-36.5 36.5 12.9 8c-12.9 10.1-20.7 20.9-23.6 32.4-1.7-9.1.2-19.3 5.6-30.4-4.5-2-9.9-4.8-16.4-8.4 4.1-16.1 15.1-35.2 33-57.2z"/></defs><clipPath id="bB"><use xlink:href="#bA" overflow="visible"/></clipPath><path clip-path="url(#bB)" fill="#FF33E1" d="M1056 364h68v106h-68z"/><defs><circle id="bC" cx="863" cy="262" r="20"/></defs><clipPath id="bD"><use xlink:href="#bC" overflow="visible"/></clipPath><path clip-path="url(#bD)" fill="#FFE01D" d="M838 237h50v50h-50z"/><defs><circle id="bE" cx="1010.5" cy="397.5" r="15.5"/></defs><clipPath id="bF"><use xlink:href="#bE" overflow="visible"/></clipPath><path clip-path="url(#bF)" fill="#FFE01D" d="M990 377h41v41h-41z"/><defs><ellipse id="bG" cx="1042" cy="313.5" rx="10" ry="10.5"/></defs><clipPath id="bH"><use xlink:href="#bG" overflow="visible"/></clipPath><path clip-path="url(#bH)" fill="#43FCF6" d="M1027 298h30v31h-30z"/><defs><circle id="bI" cx="1039.5" cy="342.5" r="5.5"/></defs><clipPath id="bJ"><use xlink:href="#bI" overflow="visible"/></clipPath><path clip-path="url(#bJ)" fill="#43FCF6" d="M1029 332h21v21h-21z"/><defs><ellipse id="bK" cx="944" cy="279.5" rx="7" ry="6.5"/></defs><clipPath id="bL"><use xlink:href="#bK" overflow="visible"/></clipPath><path clip-path="url(#bL)" fill="#E93AFF" d="M932 268h24v23h-24z"/><defs><circle id="bM" cx="1032" cy="573" r="17"/></defs><clipPath id="bN"><use xlink:href="#bM" overflow="visible"/></clipPath><path clip-path="url(#bN)" fill="#E93AFF" d="M1010 551h44v44h-44z"/><defs><circle id="bO" cx="1010.5" cy="610.5" r="8.5"/></defs><clipPath id="bP"><use xlink:href="#bO" overflow="visible"/></clipPath><path clip-path="url(#bP)" fill="#E93AFF" d="M997 597h27v27h-27z"/><defs><path id="bQ" d="M928.9 460.8c5.2-11.7 10.6-16.4 16.2-14.4 8.4 3.1 4.3 18.7 0 24-4.3 5.4-11.5 15.5-17.4 13.2-4-1.5-3.6-9.1 1.2-22.8z"/></defs><clipPath id="bR"><use xlink:href="#bQ" overflow="visible"/></clipPath><path clip-path="url(#bR)" fill="#43FCF6" d="M920 441h35v48h-35z"/><defs><path id="bS" d="M780.7 476c-.6 15-6.5 23.8-17.7 26.4 12.9 1.5 19.3 9 19.1 22.6 2.1-15.7 7.4-23.7 15.9-23.9-11.2-1.3-16.9-9.7-17.3-25.1z"/></defs><clipPath id="bT"><use xlink:href="#bS" overflow="visible"/></clipPath><path clip-path="url(#bT)" fill="#FFEA1A" d="M758 471h45v59h-45z"/><defs><path id="bU" d="M801.2 386c-.6 15.3-6.7 24.3-18.2 27 13.3 1.5 19.8 9.2 19.6 23 2.2-16 7.6-24.1 16.4-24.4-11.5-1.3-17.4-9.9-17.8-25.6z"/></defs><clipPath id="bV"><use xlink:href="#bU" overflow="visible"/></clipPath><path clip-path="url(#bV)" fill="#8639FE" d="M778 381h46v60h-46z"/><defs><path id="bW" d="M228.1 429c-1.4-96 6-156.2 22.1-180.7 24.2-36.7 41.2-78.1 9.5-83.9-31.7-5.8-59.9 53.4-55.2 132.3 3.2 52.6 11 96.7 23.6 132.3z"/></defs><clipPath id="bX"><use xlink:href="#bW" overflow="visible"/></clipPath><path clip-path="url(#bX)" fill="#39FED5" d="M199 159h83v275h-83z"/><defs><path id="bY" d="M155.5 434.8c-10.9 13.1-19.8 21.7 17 68 24.5 30.9 89.3 57 194.2 78.4 55.1 12.6 98.2 53.5 129.3 122.8-16.5-73.9-64.9-123.4-145-148.5-120.2-37.7-124.2-70-141.7-97.1-17.5-27-42.9-36.7-53.8-23.6z"/></defs><clipPath id="bZ"><use xlink:href="#bY" overflow="visible"/></clipPath><path clip-path="url(#bZ)" fill="#43FCF6" d="M141 424h360v285H141z"/><defs><path id="ca" d="M249.9 405.8c17.6-11.3 49.8-5.7 62.1 48.5 12.4 54.1 60.1 140.7 78.7 159.4 18.6 18.7 72.6 68.7 81.3 92.3-23.8-26.5-55.1-54.2-93.7-83.1-58-43.3-114.5-128.4-128.4-152.5-14-24.1-17.6-53.3 0-64.6z"/></defs><clipPath id="cb"><use xlink:href="#ca" overflow="visible"/></clipPath><path clip-path="url(#cb)" fill="#F742FC" d="M233 396h244v315H233z"/><defs><path id="cc" d="M236 574.9c6.3-7.8 19.3-12.5 44.9 6.3 25.6 18.9 90.4 85.5 138.2 101.5 31.9 10.6 47.8 32.7 47.8 66.3-3.5-34.8-28.4-55.8-74.8-63-69.6-10.8-122.4-58.5-137.9-69.9-15.5-11.4-24.5-33.4-18.2-41.2z"/></defs><clipPath id="cd"><use xlink:href="#cc" overflow="visible"/></clipPath><path clip-path="url(#cd)" fill="#9A40FF" d="M229 563h243v191H229z"/><defs><path id="ce" d="M385 715c-65.2-31.1-102.2-50.8-111-58.9-13.2-12.3-53.7-56.4-68.9-27.3-10.1 19.3 49.8 48 179.9 86.2z"/></defs><clipPath id="cf"><use xlink:href="#ce" overflow="visible"/></clipPath><path clip-path="url(#cf)" fill="#FF54B2" d="M199 614h191v106H199z"/><defs><path id="cg" d="M430 783c-26.3-22.6-66.2-38.5-119.7-47.7-80.2-13.8-97.1-53.2-123.4-73.7-26.4-20.5-66.5-48.7-79.8-14.7-13.4 34 105.6 104.9 198.8 104.9 62 0 103.4 10.4 124.1 31.2z"/></defs><clipPath id="ch"><use xlink:href="#cg" overflow="visible"/></clipPath><path clip-path="url(#ch)" fill="#FFED1D" d="M101 626h334v162H101z"/><g><defs><path id="ci" d="M464 833c-9.3-38.3-52.8-53.7-130.3-46.2-45 1.4-83-6.4-114.2-23.6-46.7-25.7-57.5-.8-57.5 11.4s12 46.1 154.7 33c95.2-8.8 144.3-.4 147.3 25.4z"/></defs><clipPath id="cj"><use xlink:href="#ci" overflow="visible"/></clipPath><path clip-path="url(#cj)" fill="#FF3EE0" d="M157 747h312v91H157z"/></g><g><defs><ellipse id="ck" cx="177.5" cy="366" rx="15.5" ry="16"/></defs><clipPath id="cl"><use xlink:href="#ck" overflow="visible"/></clipPath><path clip-path="url(#cl)" fill="#DA2AFF" d="M157 345h41v42h-41z"/></g><g><defs><ellipse id="cm" cx="178" cy="240.5" rx="8" ry="8.5"/></defs><clipPath id="cn"><use xlink:href="#cm" overflow="visible"/></clipPath><path clip-path="url(#cn)" fill="#DA2AFF" d="M165 227h26v27h-26z"/></g><g><defs><ellipse id="co" cx="374" cy="512.5" rx="11" ry="10.5"/></defs><clipPath id="cp"><use xlink:href="#co" overflow="visible"/></clipPath><path clip-path="url(#cp)" fill="#43FCF6" d="M358 497h32v31h-32z"/></g><g><defs><path id="cq" d="M175.2 594.7c11 7.2 15.5 13 13.3 17.4-3.2 6.6-19.5 3.7-24.1-1.2-4.6-5-12.6-11.5-7.9-18.1 3.1-4.3 9.4-3.7 18.7 1.9z"/></defs><clipPath id="cr"><use xlink:href="#cq" overflow="visible"/></clipPath><path clip-path="url(#cr)" fill="#E829F5" d="M150 585h44v36h-44z"/></g><g><defs><path id="cs" d="M155.2 527c9.2 1.6 13.8 6.9 13.8 16s-3.2 14.4-9.5 16c-10.2 0-16.2-5.3-18.1-16-1.9-10.7 2.7-16 13.8-16z"/></defs><clipPath id="ct"><use xlink:href="#cs" overflow="visible"/></clipPath><path clip-path="url(#ct)" fill="#FFE834" d="M136 522h38v42h-38z"/></g><g><defs><path id="cu" d="M370.3 275c-1 14.9-5.4 22.7-13.3 23.3 9.7 4 14.7 11.2 14.8 21.7 1.7-12.2 7.1-19.5 16.2-21.9-9.7-3-15.6-10.7-17.7-23.1z"/></defs><clipPath id="cv"><use xlink:href="#cu" overflow="visible"/></clipPath><path clip-path="url(#cv)" fill="#43FCF6" d="M352 270h41v55h-41z"/></g><g><defs><path id="cw" d="M327.1 382c-1.3 19.3-7 29.3-17.1 30.1 12.6 5.1 18.9 14.4 19.1 27.9.4-18.1 7.4-27.6 20.9-28.2-15.5-2.6-23.1-12.5-22.9-29.8z"/></defs><clipPath id="cx"><use xlink:href="#cw" overflow="visible"/></clipPath><path clip-path="url(#cx)" fill="#FFED1D" d="M305 377h50v68h-50z"/></g><g><defs><path id="cy" d="M498.4 623c-1.2 17.6-6.3 26.8-15.4 27.5 11.3 4.7 17 13.2 17.2 25.5.4-16.6 6.7-25.2 18.8-25.8-13.9-2.3-20.8-11.4-20.6-27.2z"/></defs><clipPath id="cz"><use xlink:href="#cy" overflow="visible"/></clipPath><path clip-path="url(#cz)" fill="#43FCF6" d="M478 618h46v63h-46z"/></g><g><defs><path id="cA" d="M81 434c15.2-4.8 24.7-8.5 28.7-11l8.7 38.9c4.9-5.4 9.5-8.2 13.7-8.2-2.9 24.9-.9 40.9 5.9 48.2-16.6-8.2-25-18.4-25.3-30.7l-14.2 3.4L81 434z"/></defs><clipPath id="cB"><use xlink:href="#cA" overflow="visible"/></clipPath><path clip-path="url(#cB)" fill="#7F0AFF" d="M76 418h67v89H76z"/></g><g><defs><path id="cC" d="M298.9 237 266 252.8l36.1 32.2 31.9-32.2z"/></defs><clipPath id="cD"><use xlink:href="#cC" overflow="visible"/></clipPath><path clip-path="url(#cD)" fill="#542DD7" d="M261 232h78v58h-78z"/></g><g><defs><path id="cE" d="M333.9 253 302 269.6V313l32-18.7z"/></defs><clipPath id="cF"><use xlink:href="#cE" overflow="visible"/></clipPath><path clip-path="url(#cF)" fill="#A656F8" d="M297 248h42v70h-42z"/></g><g><defs><path id="cG" d="M302 269.6 266 253v41.8l36 18.2z"/></defs><clipPath id="cH"><use xlink:href="#cG" overflow="visible"/></clipPath><path clip-path="url(#cH)" fill="#6541DC" d="M261 248h46v70h-46z"/></g><g><defs><path id="cI" d="M540.1 398c6.6 10.9 18.6 15.6 35.9 14.2l-6.6 16.8-42.4-10.2 13.1-20.8z"/></defs><clipPath id="cJ"><use xlink:href="#cI" overflow="visible"/></clipPath><path clip-path="url(#cJ)" fill="#F9A003" d="M522 393h59v41h-59z"/></g><g><defs><path id="cK" d="M558.1 378.8c-2.5 16.8-7.6 26.2-15.1 28v22.9l43 3.3-6.7-18.8c-3.4-7.8-1.8-17.2 4.8-28.1L572 370l-13.9 8.8z"/></defs><clipPath id="cL"><use xlink:href="#cK" overflow="visible"/></clipPath><g clip-path="url(#cL)"><defs><path id="cM" d="M538 365h53v73h-53z"/></defs><clipPath id="cN"><use xlink:href="#cM" overflow="visible"/></clipPath><g clip-path="url(#cN)"><defs><path id="cO" d="M543 370h43v63h-43z"/></defs><clipPath id="cP"><use xlink:href="#cO" overflow="visible"/></clipPath><path clip-path="url(#cP)" fill="#FFBEBE" d="M538 365h53v73h-53z"/></g><g clip-path="url(#cN)"><defs><path id="cQ" d="M581.8 398.7c-11.1 0-20.7-4.8-28.5-14.4l5.3-6.5 28.1 7.7-4.9 13.2z"/></defs><clipPath id="cR"><use xlink:href="#cQ" overflow="visible"/></clipPath><g clip-path="url(#cR)"><defs><path id="cS" d="M543 370h43v63h-43z"/></defs><clipPath id="cT"><use xlink:href="#cS" overflow="visible"/></clipPath><path clip-path="url(#cT)" fill="#FFA2A2" d="M548.3 372.9h43.4v30.8h-43.4z"/></g></g></g></g><g><defs><path id="cU" d="m624 304.6-10.1 61.1c-5.7 22.6-20.1 31.2-43 25.7s-34.3-22.6-34.1-51.3c-10.2-1.3-16.1-8.5-17.7-21.5-2.3-19.5 19.2-18.5 25.3-5.3V265l78.5 5.8 1.1 33.8z"/></defs><clipPath id="cV"><use xlink:href="#cU" overflow="visible"/></clipPath><g clip-path="url(#cV)"><defs><path id="cW" d="M514 260h115v139H514z"/></defs><clipPath id="cX"><use xlink:href="#cW" overflow="visible"/></clipPath><g clip-path="url(#cX)"><defs><path id="cY" d="M516 265h108v132H516z"/></defs><clipPath id="cZ"><use xlink:href="#cY" overflow="visible"/></clipPath><path clip-path="url(#cZ)" fill="#FFBEBE" d="M514 260h115v138H514z"/></g><g clip-path="url(#cX)"><defs><path id="da" d="M581.4 331.7c0-4.2 7.6-4.2 7.6 0v8.7c0 4.6-7.6 4.1-7.6 0v-8.7z"/></defs><clipPath id="db"><use xlink:href="#da" overflow="visible"/></clipPath><g clip-path="url(#db)"><defs><path id="dc" d="M516 265h108v132H516z"/></defs><clipPath id="dd"><use xlink:href="#dc" overflow="visible"/></clipPath><path clip-path="url(#dd)" fill="#3F3E3E" d="M576.4 323.5H594v25.2h-17.6z"/></g></g><g clip-path="url(#cX)"><defs><circle id="de" cx="570.6" cy="351.8" r="12.8"/></defs><clipPath id="df"><use xlink:href="#de" overflow="visible"/></clipPath><g clip-path="url(#df)"><defs><path id="dg" d="M516 265h108v132H516z"/></defs><clipPath id="dh"><use xlink:href="#dg" overflow="visible"/></clipPath><path clip-path="url(#dh)" fill="#FFA5A2" d="M552.8 334h35.5v35.6h-35.5z"/></g></g><g clip-path="url(#cX)"><defs><ellipse id="di" cx="616" cy="354.6" rx="11.8" ry="11.9"/></defs><clipPath id="dj"><use xlink:href="#di" overflow="visible"/></clipPath><g clip-path="url(#dj)"><defs><path id="dk" d="M516 265h108v132H516z"/></defs><clipPath id="dl"><use xlink:href="#dk" overflow="visible"/></clipPath><path clip-path="url(#dl)" fill="#FFA5A2" d="M599.1 337.7h33.6v33.7h-33.6z"/></g></g><g clip-path="url(#cX)"><defs><path id="dm" d="M603.2 331.7c0-4.2 7.6-4.2 7.6 0v8.7c0 4.6-7.6 4.1-7.6 0v-8.7z"/></defs><clipPath id="dn"><use xlink:href="#dm" overflow="visible"/></clipPath><g clip-path="url(#dn)"><defs><path id="do" d="M516 265h108v132H516z"/></defs><clipPath id="dp"><use xlink:href="#do" overflow="visible"/></clipPath><path clip-path="url(#dp)" fill="#3F3E3E" d="M598.2 323.5h17.6v25.2h-17.6z"/></g></g><g clip-path="url(#cX)"><defs><path id="dq" d="M623.9 314.4c-7.1-2.1-10.6-5.4-10.6-9.8-5.6 8.1-15.8 8.4-30.5.7-2.7 10.7-11.7 14.5-27.2 11.2-1.2 7.2-4.7 10.9-10.5 11.1-5.4-13.5-12.5-18.3-21.4-14.5l1.2-9.7 68-11.8 31 5 2 4.2-2 13.6z"/></defs><clipPath id="dr"><use xlink:href="#dq" overflow="visible"/></clipPath><g clip-path="url(#dr)"><defs><path id="ds" d="M516 265h108v132H516z"/></defs><clipPath id="dt"><use xlink:href="#ds" overflow="visible"/></clipPath><path clip-path="url(#dt)" fill="#FFA2A2" d="M518.7 286.5h112.2v46H518.7z"/></g></g><g clip-path="url(#cX)"><defs><path id="du" d="M537.9 323.2c-2.2-2.6-4.7-4.4-9.2-2.2-3 1.5-3.8 5.4-2.4 11.8.6-4.1 1.2-6.7 1.9-7.8.4-.7-.7 7.3 3.6 10.2-2.5-3.6-1.1-12.8-.6-13 1.8-.8 4.1-.1 6.7 1z"/></defs><clipPath id="dv"><use xlink:href="#du" overflow="visible"/></clipPath><g clip-path="url(#dv)"><defs><path id="dw" d="M516 265h108v132H516z"/></defs><clipPath id="dx"><use xlink:href="#dw" overflow="visible"/></clipPath><path clip-path="url(#dx)" fill="#FFA2A2" d="M520.6 315h22.3v25.2h-22.3z"/></g></g><g clip-path="url(#cX)"><defs><path id="dy" d="M581.1 370.3c8.6.4 15.1.4 19.6 0 2.5-.3 3.1.8 2 3.2-1.7 3.7-4.5 5.7-10.5 6.2s-10.4-3.9-12-5.8c-1.1-1.4-.8-2.5.9-3.6z"/></defs><clipPath id="dz"><use xlink:href="#dy" overflow="visible"/></clipPath><g clip-path="url(#dz)"><defs><path id="dA" d="M516 265h108v132H516z"/></defs><clipPath id="dB"><use xlink:href="#dA" overflow="visible"/></clipPath><path clip-path="url(#dB)" fill="#FF8989" d="M574.5 365.2h33.6v19.5h-33.6z"/></g></g></g></g><g><defs><path id="dC" d="M536.3 311.5c3.9 2.4 7.2 9.1 7.2 15.8 6.5-2.9 9.1-8.2 7.6-15.8 17.6 5.4 27.6 2.5 29.8-8.9 16 6.4 26.9 5.7 32.8-2 .9 5.6 3.8 8.5 8.8 8.5l-1.7 15.7c16.5-2 24.3-9.4 23.5-22.2 15.5-.5 24.4-30.3 3.2-42.1-2.3-4 2-45.8-47.7-30.4-21.8-19.9-41.7-20.2-59.9-.9-35.5 2.9-50.1 19.7-43.9 50.6-2.2 5.6-2 11.1.5 16.3-6.6 11.3-5.9 19.6 2.1 24.8-3.5 16.3 3.3 26.6 20.3 30.9 5.9 9.1 13 13.1 21.3 12.1-2.6-8.5-3.8-16.7-3.6-24.5-12.5-4.5-18-11.6-16.3-21.5 3.5-10.3 12-8.9 16-6.4z"/></defs><clipPath id="dD"><use xlink:href="#dC" overflow="visible"/></clipPath><path clip-path="url(#dD)" fill="#6F3AB9" d="M487 210h178v159H487z"/></g><g><defs><path id="dE" d="M619.7 543.5c63.5-44.1 115-52.2 154.4-24.3 39.4 27.9 44.5 91.1 15.1 189.8l-59.1-7.3c21.1-98.4 12.3-138.5-26.2-120.2-85.3 46.2-140.6 47.4-165.8 3.7 34.1-31.8 61.3-45.7 81.6-41.7z"/></defs><clipPath id="dF"><use xlink:href="#dE" overflow="visible"/></clipPath><path clip-path="url(#dF)" fill="#333232" d="M533 498h280v216H533z"/></g><g><defs><path id="dG" d="M523 617c24.6 44.5 66.6 50.2 126 17.2 19.4-8.6 24.4 4.2 15 38.3-9.4 34.1-17.9 59.6-25.7 76.5l61.9 14c54.4-129.6 45.1-195.4-27.9-197.4s-120 .8-141.2 8.4l-8.1 43z"/></defs><clipPath id="dH"><use xlink:href="#dG" overflow="visible"/></clipPath><path clip-path="url(#dH)" fill="#333232" d="M518 560h222v208H518z"/></g><g><defs><path id="dI" d="M635 755c-3.2 1.5-3.9 3.6-2.1 6.3 2.7 4.1 69.8 24.6 62.5 8.7-4.9-10.4-25-15.5-60.4-15z"/></defs><clipPath id="dJ"><use xlink:href="#dI" overflow="visible"/></clipPath><path clip-path="url(#dJ)" fill="#171616" d="M627 750h74v31h-74z"/></g><g><defs><path id="dK" d="M722.7 715.5c-2.5 3 2.3 5.7 14.4 8 18.2 3.5 55.7 10.4 43.6 0-8.2-7-27.5-9.7-58-8z"/></defs><clipPath id="dL"><use xlink:href="#dK" overflow="visible"/></clipPath><path clip-path="url(#dL)" fill="#171616" d="M717 710h71v24h-71z"/></g><g><defs><path id="dM" d="m648.4 749.1-9.4 36.5 10.5 20.4 22.8-20.4 13.7-36.5z"/></defs><clipPath id="dN"><use xlink:href="#dM" overflow="visible"/></clipPath><g clip-path="url(#dN)"><defs><path id="dO" d="M634 744h57v67h-57z"/></defs><clipPath id="dP"><use xlink:href="#dO" overflow="visible"/></clipPath><g clip-path="url(#dP)"><defs><path id="dQ" d="M639 749h47v57h-47z"/></defs><clipPath id="dR"><use xlink:href="#dQ" overflow="visible"/></clipPath><path clip-path="url(#dR)" fill="#FFBDBD" d="M634 744.1h57V811h-57z"/></g><g clip-path="url(#dP)"><defs><path id="dS" d="M643.3 764.3c16.6 0 28.7 2.5 36.4 7.6l4.2-13.2-19.3-14.2-21.3 4.7v15.1z"/></defs><clipPath id="dT"><use xlink:href="#dS" overflow="visible"/></clipPath><g clip-path="url(#dT)"><defs><path id="dU" d="M639 749h47v57h-47z"/></defs><clipPath id="dV"><use xlink:href="#dU" overflow="visible"/></clipPath><path clip-path="url(#dV)" fill="#FE9595" d="M638.3 739.4h50.6v37.5h-50.6z"/></g></g></g></g><g><defs><path id="dW" d="m737.7 711.4-5.6 28.4 4.2 20.1 22.7-9.4 12.9-40.5z"/></defs><clipPath id="dX"><use xlink:href="#dW" overflow="visible"/></clipPath><g clip-path="url(#dX)"><defs><path id="dY" d="M727 705h50v60h-50z"/></defs><clipPath id="dZ"><use xlink:href="#dY" overflow="visible"/></clipPath><g clip-path="url(#dZ)"><defs><path id="ea" d="M732 710h40v50h-40z"/></defs><clipPath id="eb"><use xlink:href="#ea" overflow="visible"/></clipPath><path clip-path="url(#eb)" fill="#FFBDBD" d="M727.1 705H777v59.9h-49.9z"/></g><g clip-path="url(#dZ)"><defs><path id="ec" d="M734 721.4c16.2-.6 28.1 1.8 35.4 7.4l4.4-14.2-28.1-5.5H731l3 12.3z"/></defs><clipPath id="ed"><use xlink:href="#ec" overflow="visible"/></clipPath><g clip-path="url(#ed)"><defs><path id="ee" d="M732 710h40v50h-40z"/></defs><clipPath id="ef"><use xlink:href="#ee" overflow="visible"/></clipPath><path clip-path="url(#ef)" fill="#FE9595" d="M726.1 704.2h52.8v29.7h-52.8z"/></g></g></g></g><g><defs><path id="eg" d="M646.3 727c-6.4 12.9-11.5 22.3-15.3 28.2 35.1.3 55.9 6.6 62.4 18.8 2.5.4 7-8.2 13.6-25.6-11.6-14.2-31.9-21.3-60.7-21.4z"/></defs><clipPath id="eh"><use xlink:href="#eg" overflow="visible"/></clipPath><path clip-path="url(#eh)" fill="#7E7C7C" d="M626 722h86v57h-86z"/></g><g><defs><path id="ei" d="M732.7 689.4c-2.6 9-6.2 18.6-10.7 28.8 17.4-4.6 49.5 0 61.2 10.8 4.4-10.4 7.6-20.6 9.8-30.8-15.8-9.3-35.9-12.3-60.3-8.8z"/></defs><clipPath id="ej"><use xlink:href="#ei" overflow="visible"/></clipPath><path clip-path="url(#ej)" fill="#7E7C7C" d="M717 683h81v51h-81z"/></g><g><defs><path id="ek" d="M629.9 474c3.6 14.9 11.7 24.6 24.5 29.1s23.3 5.3 31.5 2.3l-12.3 10.8c-42.9 17.8-69.5 5.2-79.7-37.8 17-2.9 29-4.4 36-4.4z"/></defs><clipPath id="el"><use xlink:href="#ek" overflow="visible"/></clipPath><path clip-path="url(#el)" fill="#FD9B9B" d="M589 469h102v60H589z"/></g><g><defs><path id="em" d="M452.7 458c-8.4 7.7-7.5 15.3 2.5 22.9 15 11.3 37.8 24.5 50.8 12.2.2-22.9-17.5-34.6-53.3-35.1z"/></defs><clipPath id="en"><use xlink:href="#em" overflow="visible"/></clipPath><path clip-path="url(#en)" fill="#F9A003" d="M442 453h69v50h-69z"/></g><g><defs><path id="eo" d="M541.4 400.6c-12.3-20.4-43.4.1-93.4 61.5 27.2-5.5 45.4 2.4 54.8 24 1.7 7.2-1.4 11.1-9.4 11.8-5.3 14.8 1.5 76.5 27.8 118.4 50.3-51.4 83-75.2 98.1-71.4-14-13.7-21.5-31.2-22.6-52.8 7.9-9.9 18.9-14.5 33.1-13.9l-11.9-37.4c-7.3-16-20.4-25.1-39.3-27.1-3.7 8.8-12.8 10.5-27.2 5.2-7.1-4.3-10.4-10.4-10-18.3z"/></defs><clipPath id="ep"><use xlink:href="#eo" overflow="visible"/></clipPath><g clip-path="url(#ep)"><defs><path id="eq" d="M443 388h192v234H443z"/></defs><clipPath id="er"><use xlink:href="#eq" overflow="visible"/></clipPath><g clip-path="url(#er)"><defs><path id="es" d="M448 388h182v229H448z"/></defs><clipPath id="et"><use xlink:href="#es" overflow="visible"/></clipPath><path clip-path="url(#et)" fill="#F9D168" d="M443 388h191.7v233.3H443z"/></g><g clip-path="url(#er)"><defs><path id="eu" d="m502 494.2 26.6-42.5c-12.4 25.1-20.8 40-25.2 44.7-6.6 7-41.9-6.1-26.8-10 10.1-2.6 13.3-.4 9.6 6.7l15.8 1.1z"/></defs><clipPath id="ev"><use xlink:href="#eu" overflow="visible"/></clipPath><g clip-path="url(#ev)"><defs><path id="ew" d="M448 388h182v229H448z"/></defs><clipPath id="ex"><use xlink:href="#ew" overflow="visible"/></clipPath><path clip-path="url(#ex)" fill="#F9B703" d="M467.9 446.7h65.8v56.7h-65.8z"/></g></g></g></g><g><defs><path id="ey" d="m534 541.5 147.1-37.3 106.8-3.7v5.7l-125.3 38.4L534 546z"/></defs><clipPath id="ez"><use xlink:href="#ey" overflow="visible"/></clipPath><path clip-path="url(#ez)" fill="#4D4B4B" d="M529 495.5h263.9V551H529z"/></g><g><defs><path id="eA" d="M664.4 534.9h-79.2l102.4-22.3z"/></defs><clipPath id="eB"><use xlink:href="#eA" overflow="visible"/></clipPath><path clip-path="url(#eB)" fill="#585858" d="M580.2 507.6h112.4v32.3H580.2z"/></g><g><defs><path id="eC" d="M805.6 380.6c-2-7.2-7.3-9.9-15.9-8-12.9 2.9-88.6 24.5-104.8 29.1-16.2 4.6-15.3 16.8-16.9 26.9-1.1 6.7-5.3 43.5-12.6 110.3h10.9l139.3-158.3z"/></defs><clipPath id="eD"><use xlink:href="#eC" overflow="visible"/></clipPath><path clip-path="url(#eD)" fill="#2B2B2B" d="M650.4 367h160.2v176.9H650.4z"/></g><g><defs><path id="eE" d="M684.1 405.2c9-3 104.1-29.8 109.9-30.8 5.8-1 12.1-.4 12.1 10 0 6.9-4.4 46.7-13.3 119.2l-131.3 35.2c6.1-62.2 9.7-97.4 10.7-105.7 1.4-12.4 2.8-24.9 11.9-27.9z"/></defs><clipPath id="eF"><use xlink:href="#eE" overflow="visible"/></clipPath><path clip-path="url(#eF)" fill="#585858" d="M656.5 369.1H811v174.8H656.5z"/></g><g><defs><path id="eG" d="m533 539.9 128.5-2v9.1H533z"/></defs><clipPath id="eH"><use xlink:href="#eG" overflow="visible"/></clipPath><path clip-path="url(#eH)" fill="#848282" d="M528 532.9h138.5V552H528z"/></g><g><defs><path id="eI" d="M639.9 543h10c.3 0 .5.2.5.5s-.2.5-.5.5h-10c-.3 0-.5-.2-.5-.5s.2-.5.5-.5z"/></defs><clipPath id="eJ"><use xlink:href="#eI" overflow="visible"/></clipPath><path clip-path="url(#eJ)" fill="#2B2B2B" d="M634.4 538h21v11h-21z"/></g><g><defs><path id="eK" d="M621.8 543h10c.3 0 .5.2.5.5s-.2.5-.5.5h-10c-.3 0-.5-.2-.5-.5s.2-.5.5-.5z"/></defs><clipPath id="eL"><use xlink:href="#eK" overflow="visible"/></clipPath><path clip-path="url(#eL)" fill="#2B2B2B" d="M616.3 538h21v11h-21z"/></g><g><defs><path id="eM" d="M661.5 538 793 501.5l-.8 7.8L661.5 547z"/></defs><clipPath id="eN"><use xlink:href="#eM" overflow="visible"/></clipPath><path clip-path="url(#eN)" fill="#4D4B4B" d="M656.5 496.5H798V552H656.5z"/></g><g><defs><ellipse id="eO" cx="736.2" cy="457" rx="11.5" ry="11.1"/></defs><clipPath id="eP"><use xlink:href="#eO" overflow="visible"/></clipPath><path clip-path="url(#eP)" fill="#404040" d="M719.7 440.8h33.1v32.3h-33.1z"/></g><g><defs><path id="eQ" d="m744.5 441.4.8.4c.7.4 1.1 1.3.7 2 0 0 0 .1-.1.1l-4 6.8c-.4.7-1.2.9-1.9.6l-.8-.4c-.7-.4-1.1-1.3-.7-2 0 0 0-.1.1-.1l4-6.8c.4-.7 1.2-1 1.9-.6z"/></defs><clipPath id="eR"><use xlink:href="#eQ" overflow="visible"/></clipPath><path clip-path="url(#eR)" fill="#404040" d="M733.4 436.2h17.8v20.2h-17.8z"/></g><g><defs><path id="eS" d="M456.5 461.6c-27.4 39.3-30.9 71.7-10.4 97.2 23 21.3 65.3 9.2 126.7-36.1 6 .2 13-2.9 21.1-9.3 4.4-2.2 7.3-1.3 8.7 2.8 2 6.1-1.3 7.1 2.8 8.8 2.7 1.1 4.8-.9 6.2-6.1.1 2.6 1.3 3.9 3.4 3.9 2.1 0 3.7-1.7 4.8-5.2.9 4.2 3.2 4.6 6.8 1.3 1.9-10.4-1.7-20.2-10.8-29.3 2.8-.9 6.9 3.7 12.4 13.8 2.4 4.5 3.1 9.3 9.3 6.2 3.3-1.7.1-9.2-1.7-11.8-5.2-7.4-7.5-23-40.8-18.7-15 3.5-26.6 10.8-34.8 21.9-13.1 11.7-101.4 43.4-60.1-20.2-9.7-15.6-24.3-21.9-43.6-19.2z"/></defs><clipPath id="eT"><use xlink:href="#eS" overflow="visible"/></clipPath><g clip-path="url(#eT)"><defs><path id="eU" d="M428 456h216v119H428z"/></defs><clipPath id="eV"><use xlink:href="#eU" overflow="visible"/></clipPath><g clip-path="url(#eV)"><defs><path id="eW" d="M428 458h213v117H428z"/></defs><clipPath id="eX"><use xlink:href="#eW" overflow="visible"/></clipPath><path clip-path="url(#eX)" fill="#FFBDBD" d="M428 456h216v118H428z"/></g><g clip-path="url(#eV)"><defs><path id="eY" d="M612.4 497.6c.4-.4 1-.4 1.3-.1 5.4 4.9 7.8 12.2 7.3 21.7v.7l-.1.2c-3.2 5.9-6.8 7-9.7 2.7-1.1-1.6-1.5-3.3-1.8-6l-.1-1.3-.1-1c-.4-5.1-1.9-7.9-5.3-9-.5-.2-.9-.5-.8-1 .1-.5.5-.9 1-.8 4 .8 4.8 3.4 5.8 5.4.7 1.4 1 2.7 1.2 5.6l.1 1.6c.2 2.5.6 4.1 1.5 5.4 1.9 2.8 3.7 2.4 6.2-2l.2-.3v-.3c.5-8.9-1.6-15.5-6.4-19.9l-.3-.3c-.3-.3-.4-.9 0-1.3z"/></defs><clipPath id="eZ"><use xlink:href="#eY" overflow="visible"/></clipPath><g clip-path="url(#eZ)"><defs><path id="fa" d="M428 458h213v117H428z"/></defs><clipPath id="fb"><use xlink:href="#fa" overflow="visible"/></clipPath><path clip-path="url(#fb)" fill="#FD9B9B" d="M598 492.3h28.1v38.2H598z"/></g></g></g></g><g><defs><path id="fc" d="M734.9 737.2c7.1 7.1 16.8 10.4 29 9.9 2.7-.6 3.9 0 3.6 2-.2 2-1.2 7-2.8 15l19.7 31.5c16 9.5 21.1 19.9 15.1 31.4l-25.1-6.5-62.4-39.3c2.8-11.7 7.3-19.8 13.6-24.4 3-1.3 5-6.5 6.2-15.6.2-3.4 1.3-4.7 3.1-4z"/></defs><clipPath id="fd"><use xlink:href="#fc" overflow="visible"/></clipPath><path clip-path="url(#fd)" fill="#272727" d="M707 732h100v100H707z"/></g><g><defs><path id="fe" d="m713.7 776 85.5 49c1.1 2 1.1 4.3 0 6.7l-2.3 3.3c-57-32-86.7-48.6-89-49.9-2.3-1.3-.4-4.3 5.8-9.1z"/></defs><clipPath id="ff"><use xlink:href="#fe" overflow="visible"/></clipPath><path clip-path="url(#ff)" fill="#FFF" d="M702 771h103v69H702z"/></g><g><defs><path id="fg" d="m713.2 777.1 85.1 49.4.1.1c.9 1.9.8 3.9-.1 6.1l-2 2.9-84.4-47.9c-2.4-1.4-3.8-2.2-4.3-2.4-.9-.5-1-1.3-.1-2.6.8-1.3 2.5-3 5-5l.7-.6zm85.9 48.8L713.2 776l-.2.2c-3.1 2.5-5.2 4.5-6.2 6.1-1.1 1.7-1 3.1.3 3.9l16.1 9.1 73.5 41.8 2.5-3.7c1.1-2.6 1.2-4.9.2-7l-.3-.5z"/></defs><clipPath id="fh"><use xlink:href="#fg" overflow="visible"/></clipPath><path clip-path="url(#fh)" fill="#333" d="M701 771h104v71H701z"/></g><g><defs><path id="fi" d="M642.5 772.3c7.5 6.2 13.4 14.3 31.8 9.5 1.2-.5 1.9-.1 2.2 1.3.4 2.1-2.2 16.7-2.2 17.6 0 .6 6.1 15.2 18.4 43.9 14 15.5 17.7 28 11.2 37.4l-65-40.9-28-30.4c5.3-9.9 12.8-17.2 22.5-21.8l6.8-14.5c.8-2.2 1.6-2.8 2.3-2.1z"/></defs><clipPath id="fj"><use xlink:href="#fi" overflow="visible"/></clipPath><path clip-path="url(#fj)" fill="#272727" d="M606 767h106v120H606z"/></g><g><defs><path id="fk" d="m610.9 811 92.7 70.2c.9 2.1.5 4.1-1.1 6.1s-2.6 3.2-3.1 3.7l-94.5-71.3c-1.5-2-1.1-3.9 1.2-5.6 2.2-1.7 3.8-2.7 4.8-3.1z"/></defs><clipPath id="fl"><use xlink:href="#fk" overflow="visible"/></clipPath><path clip-path="url(#fl)" fill="#FFF" d="M599 806h110v90H599z"/></g><g><defs><path id="fm" d="m611.2 811.1 91.5 70.7v-.1c.8 1.9.5 3.8-1 5.7l-1 1.3c-.7.9-1.3 1.6-1.6 2l-.1.1-93.3-71.8v.1c-1.3-1.8-1-3.4 1.1-5l.6-.5c1.6-1.2 2.8-2 3.7-2.4l.1-.1zm92.3 70L611.4 810l-.2.1c-1 .4-2.7 1.5-4.9 3.2-2.4 1.9-2.9 4-1.2 6.3l.1.1 93.9 72.3.3-.3c.5-.5 1.5-1.8 3.1-3.8 1.7-2.1 2.1-4.4 1.1-6.6l-.1-.2z"/></defs><clipPath id="fn"><use xlink:href="#fm" overflow="visible"/></clipPath><path clip-path="url(#fn)" fill="#333" d="M599 805h110v92H599z"/></g><g><defs><path id="fo" d="m780.1 815 .9.4-5.1 7.6-.9-.4z"/></defs><clipPath id="fp"><use xlink:href="#fo" overflow="visible"/></clipPath><path clip-path="url(#fp)" fill="#272727" d="M770 810h16v18h-16z"/></g><g><defs><path id="fq" d="m708.5 780 70.5 39.2-.5.8-70.5-39.2z"/></defs><clipPath id="fr"><use xlink:href="#fq" overflow="visible"/></clipPath><path clip-path="url(#fr)" fill="#272727" d="M703 775h81v50h-81z"/></g><g><defs><path id="fs" d="m684.3 866 .7.5-5.3 7.5-.7-.5z"/></defs><clipPath id="ft"><use xlink:href="#fs" overflow="visible"/></clipPath><path clip-path="url(#ft)" fill="#272727" d="M674 861h16v18h-16z"/></g><g><defs><path id="fu" d="m605.6 814 75.4 58.3-.6.7-75.4-58.3z"/></defs><clipPath id="fv"><use xlink:href="#fu" overflow="visible"/></clipPath><path clip-path="url(#fv)" fill="#272727" d="M600 809h86v69h-86z"/></g><g><defs><path id="fw" d="M678.6 800.2c.4-.3 1-.3 1.3.1.3.4.3 1-.1 1.3l-.7.7c-11.7 10.8-14.7 17.7-9.9 20.8 4.8 3.1 7.9-2.1 9.1-17 .1-1.1 1.6-1.2 1.8-.1l.2.9c2.5 11.5 5.1 16.8 7.3 16 2.3-.7 3.8-2.9 3.6-5.7-.3-3.8-3.5-8.3-10.1-13.2-.4-.3-.5-.9-.2-1.3s.9-.5 1.3-.2c7 5.2 10.5 10.2 10.8 14.6.3 3.7-1.8 6.7-4.9 7.7-3.3 1.1-6-3.1-8.4-12.4l-.2-.7v.3l-.1.8c-1.7 11.1-5.4 15.4-11 12l-.2-.1c-6.6-4.2-2.8-12.5 10.4-24.5z"/></defs><clipPath id="fx"><use xlink:href="#fw" overflow="visible"/></clipPath><path clip-path="url(#fx)" fill="#FFF" d="M660 795h38v36h-38z"/></g><g><defs><path id="fy" d="m764 764.8-.4.9c-4.2 11.1-4.7 17.3-2 18.4 3 1.2 4.4 1.2 5-.2 1-2.2.4-7.7-2.3-17l-.1-.5 1.9-.6.3.9c3 9 5.8 13.6 7.8 13.6 1.6 0 3.2-2.2 2.8-4.8-.6-3.6-4.6-7.4-12.4-10.6l-.4-.2c-.1.1-.1.1-.2.1zm-.1-1.6c.3-.2.6-.2.9-.1 8.7 3.5 13.3 7.8 14 12.2.6 3.7-1.8 7-4.7 7-1.8 0-3.5-1.5-5.3-4.6l-.1-.1v.1c.4 3.2.3 5.4-.3 6.9l-.1.2c-1.2 2.7-3.7 2.7-7.5 1.1-4.4-1.8-3.7-9.2 1.5-22.3.2-.5.8-.7 1.3-.5.1 0 .1.1.2.1h.1z"/></defs><clipPath id="fz"><use xlink:href="#fy" overflow="visible"/></clipPath><path clip-path="url(#fz)" fill="#FFF" d="M753 758h31v34h-31z"/></g></svg>