<svg width="1028" height="816" xmlns="http://www.w3.org/2000/svg" xmlns:xlink="http://www.w3.org/1999/xlink"><defs><path d="M213.71.798c-51.793-1.126-94.102 10.25-126.93 34.125L0 337.621l213.71-2.188V.798Z" id="a"/><path id="e" d="m0 0 32.107 2.308 38.556 41.694 70.407 566.62L32.107 620.65z"/><path id="h" d="M0 23.855 34.912.952l19.979 8.58 36.668 259.946H49.023z"/><path id="k" d="M.882 10.17 25.848.778l75.78 34.294 56.083 410.776-85.412-11.574z"/><path id="m" d="M0 14.735 21.731 1.307h28.963l34.28 207.546h-71.5z"/><path id="o" d="m13.504 0 11.402 5.719L93.19 39.966l53.663 403.005H47.382z"/><path d="M207.92.155c-19.558-.859-35.372 1.846-47.441 8.114L0 574.702l142.374 3.784L207.92.156Z" id="r"/><path d="M85.587 269.848v20.238H0l4.823-20.238h80.764Zm3.03-29.983-1.486 20.161H7.804l4.469-20.161h76.345Zm5.126-29.984-1.908 20.162H15.002l4.901-20.162h73.84Zm2.667-29.983-4.5 20.162H22.68l4.903-20.162H96.41Zm3.952-29.983v20.162H29.834l5.17-20.162h65.358Zm2.293-29.983-2.293 20.162h-62.11l5.055-20.162h59.348Zm8.53-29.983-6.104 21.363-59.409-1.201 5.177-20.162h60.336Zm.608-29.983-7.22 20.162H54.01l4.237-20.162h53.546Zm1.232-29.983v20.162H61.187l4.876-20.162h46.962ZM121.55 0v20.162H68.584L74.586 0h46.963Z" id="t"/><path id="v" d="M114.865 0 35.911 31.372 0 183.6h95.28z"/><path d="M354.772 1.053c28.419 5.243 44.815 25.495 49.19 60.758 4.374 35.263 20.424 234.684 48.15 598.264 2.37 36.63-13.68 55.23-48.15 55.8-51.707.855-326.504-.854-361.832 0-35.328.855-45.61-.854-41.152-50.24 2.97-32.924 24.237-240.79 63.798-623.6 6.962-27.32 22.063-40.982 45.303-40.982h42.422c5.4 0 5.31 16.484 13.763 16.484h141.571c8.078 0 5.539-16.484 14.011-16.484h32.926Z" id="x"/><path d="M148.286 0h152.08c5.886 0 8.829 4.139 8.829 12.416 0 8.277 2.932 45.275 8.796 110.995.142 5.683-3.239 8.587-10.143 8.712H9.566c-5.656-.82-8.417-3.724-8.283-8.712 0-7.536 3.19-46.418 9.57-116.647C11.292 2.254 14.658 0 20.95 0h127.336Z" id="z"/><path d="M169.062 0h173.736c6.723 0 10.085 4.776 10.085 14.327 0 9.55 3.35 52.243 10.048 128.077.163 6.559-3.7 9.91-11.587 10.054H10.59c-6.462-.947-9.616-4.298-9.463-10.054 0-8.695 3.644-53.561 10.932-134.599C12.562 2.602 16.408 0 23.594 0h145.468Z" id="A"/><path id="G" d="M13.464 5.59 0 34.983l3.26 23.821 26.976-11.987L49.21 22.106 32.803 0z"/><path id="I" d="M.059 3.143v29.102l8.31 15.467L25.945 35.64 35.33 3.143 10.277 0z"/><path d="M30.804.15c1.83 11.697-.47 18.492-6.898 20.386C17.478 22.429 9.51 25.426 0 29.526l46.957 30.186 24.992-22.588-5.769-16.588c-11.06 2.819-15.705-3.157-13.934-17.928L30.804.149Z" id="K"/><path d="M0 109.905c42.15-5.379 68.038-15.59 77.664-30.635-2.173-1.853-2.763-7.114-1.77-15.783-1.599-2.215-3.856-2.99-11.463-3.705-7.606-.714-5.637-10.978 0-11.904 5.638-.927 15.789 1.277 19.68 4.795 7.521-16.903 11.947-31 13.278-42.292 1.997-16.936 13.403-10.003 13.403-1.34 0 8.662-1.52 20.343-3.993 24.934 6.34-1.82 10.035.582 11.085 7.204 5.96-2.688 10.583 1.821 13.87 13.528 3.289 11.707 2.006 18.5-3.849 20.377-2.464.725-4.75-.895-6.859-4.858-5.73 18.964-14.744 28.253-27.04 27.867-24.734 33.367-55.011 51.463-90.83 54.29L0 109.904Z" id="M"/><path d="M92.587 3.274C45.242 6.344 14.379 36.572 0 93.96c8.44-8.502 19.585-12.312 33.435-11.429 13.85.883 19.427 5.394 16.727 13.531L35.3 155.551l92.68-14.487c5.032-56.632 28.358-84.215 69.98-82.752V0c-30.01 1.369-47.093 2.053-51.252 2.053-6.238 0-16.077-.018-22.28 0 6.285 10.594 3.169 16.59-9.348 17.987-12.517 1.398-20.015-4.191-22.493-16.766Z" id="O"/><path d="m98.103 33.868.723 55.253c-1.277 14.33-10.32 22.56-27.128 24.688-16.807 2.128-31.176-5.316-43.105-22.333C12.429 95.266 3.16 90.072.789 75.896c-1.31-18.17 18.36-14.817 21.276-11.59l-3.738-36.872L56.714 0l41.39 13.831v20.037Z" id="Q"/><path d="M133.974 73.823c-7.111 1.182-12.717-.928-16.817-6.33-5.257 10.78-15.48 14.589-30.669 11.426-1.59 12.25-8.853 17.72-21.787 16.413 2.567 11.375 2.066 17.149-1.504 17.322l-5.685-5.831c-12.549-4.146-18.823-.782-18.823 10.094 0 16.313 16.888 18.018 26.012 15.436 4.107 5.468 7.885 9.793 11.332 12.976-13.793 8.72-25.146 7.074-34.057-4.938-26.676-1.278-37.277-15.778-31.803-43.5C-2.27 86.955-3.298 77.596 7.089 68.815c-7.544-35.8 7.237-53.743 44.344-53.826 12.523-17.665 28.37-19.717 47.54-6.155 22.19-5.518 35.604 1.271 40.242 20.368 20.723 7.86 25.576 21.41 14.558 40.646 6.265 16.202 3.11 27.643-9.465 34.322 2.626 14.104-.617 21.293-9.73 21.566l-.604-51.914Z" id="S"/><path d="M0 40.99c8.344-8.998 20.843-12.69 39.109-8.998 9.086 3.499 11.89 7.958 8.411 13.38.026 27.698 29.453 25.722 88.283-5.929 2.382-8.445 6.439-14.182 12.17-17.21 1.347-.712 3.068-10.25 3.98-16.884.911-6.634 7.702-7.331 8.163-.774.46 6.557-1.94 13.752-.795 13.389l5.874-2.423.01-7.749c9.376-.351 12.5 3.04 9.373 10.172 3.73 3.778 4.446 8.454 2.146 14.028 2.157 7.357 1.195 12.472-2.887 15.347 1.925 6.983-4.723 12.468-19.941 16.456C132.656 78.89 39.814 142.775 12.1 99.171 3.18 84 0 60.827 0 40.99Z" id="T"/><linearGradient x1="50%" y1="0%" x2="50%" y2="100%" id="b"><stop stop-color="#119FF0" offset="0%"/><stop stop-color="#78C4FF" offset="100%"/></linearGradient><linearGradient x1="54.437%" y1="0%" x2="46.394%" y2="100%" id="c"><stop stop-color="#5216FF" offset="0%"/><stop stop-color="#2951E6" offset="100%"/></linearGradient><linearGradient x1="50%" y1="0%" x2="50%" y2="100%" id="f"><stop stop-color="#4D67FC" offset="0%"/><stop stop-color="#5514F6" offset="100%"/></linearGradient><linearGradient x1="50%" y1="0%" x2="50%" y2="100%" id="i"><stop stop-color="#E5FFF1" offset="0%"/><stop stop-color="#B5E2FF" offset="100%"/></linearGradient><linearGradient x1="49.273%" y1="0%" x2="50%" y2="100%" id="p"><stop stop-color="#2D9EF4" offset="0%"/><stop stop-color="#0809ED" offset="100%"/></linearGradient><ellipse id="C" cx="12.177" cy="12.313" rx="12.177" ry="12.313"/><ellipse id="E" cx="12.91" cy="13.082" rx="12.91" ry="13.082"/></defs><g fill="none" fill-rule="evenodd"><g><path d="M299.274 249.171c-26.261-.793-81.915-.793-166.961 0 3.14-23.854 14.685-39.175 34.631-45.96 5.497-21.327 18.52-32.229 39.07-32.707 20.55-.479 34.892 8.56 43.029 27.118 36.011 3.65 52.755 20.833 50.23 51.55Z" fill="#5BF3FE"/><path d="M822.71 123.857c-26.261-.793-81.915-.793-166.961 0 3.14-23.855 14.684-39.175 34.63-45.961 5.497-21.326 18.52-32.228 39.07-32.707 20.55-.478 34.893 8.562 43.03 27.12 36.011 3.649 52.755 20.832 50.23 51.548Z" fill="#A7FFFF"/><path d="M998.664 419.657c-23.978-.72-74.792-.72-152.443 0 2.868-21.646 13.408-35.548 31.62-41.705 5.019-19.352 16.91-29.244 35.672-29.678 18.763-.435 31.859 7.768 39.288 24.607 32.88 3.312 48.167 18.904 45.863 46.776Z" fill="#5CF1FF"/><ellipse fill="#00EFCC" cx="218.825" cy="276.129" rx="9.451" ry="9.471"/><ellipse fill="#B0F6FE" cx="141.764" cy="348.986" rx="5.089" ry="5.1"/><ellipse fill="#B0F6FE" cx="131.586" cy="367.929" rx="5.089" ry="5.1"/><ellipse fill="#00EFCC" cx="231.184" cy="294.343" rx="4.362" ry="4.371"/><g transform="translate(52.344 369.548)"><mask id="d" fill="#fff"><use xlink:href="#a"/></mask><use fill="url(#b)" xlink:href="#a"/><path d="M101.376 61.607 31.276 323.3H20.173L91.806 61.607h9.57Zm17.834 0L49.11 323.3H38.008L109.64 61.607h9.57Zm16.811 0L65.921 323.3H54.82l71.632-261.693h9.57Zm18.493 0L84.414 323.3H73.313l71.632-261.693h9.57Zm15.131 0L99.545 323.3H88.444l71.631-261.693h9.57Z" fill="url(#c)" mask="url(#d)"/><path d="M79.003 43.768c42.671-26.376 66.28-35.415 106.627-37.872C225.98 3.44 189.841-7.25 189.841-7.25c-26.365 1.303-41.08 2.238-44.144 2.805L74.04 28.074c1.489 4.65 3.143 9.88 4.962 15.694Z" fill="#B0F6FE" mask="url(#d)"/></g><g transform="translate(738.626 106.371)"><mask id="g" fill="#fff"><use xlink:href="#e"/></mask><use fill="#4BC8FC" xlink:href="#e"/><path fill="url(#f)" mask="url(#g)" d="M-7.975 51.58h67.689l58.203 517.52H24.556z"/><path fill="#96E1FF" mask="url(#g)" d="m-2.101 3.78 47.373 4.27L21.586-7.861H-7.975z"/></g><g transform="translate(891.295 437.143)"><mask id="j" fill="#fff"><use xlink:href="#h"/></mask><use fill="#5D73CF" xlink:href="#h"/><path fill="url(#i)" mask="url(#j)" d="m33.779-7.245 37.933 260.598h33.443L65.605.952z"/><path d="m49.193 64.023 9.175 2.03 1.225 8.772-8.971-.836-1.429-9.966ZM45.801 48.86l9.174 2.03 1.226 8.772-8.972-.836-1.428-9.966Zm-1.697-15.164 9.175 2.03 1.225 8.772-8.971-.835-1.429-9.967ZM42.04 19.938l9.174 2.03 1.226 8.771-8.972-.835-1.428-9.966Z" fill="#2694FF" mask="url(#j)"/><path fill="#445EC8" mask="url(#j)" d="m18.006.952 37.973 243.03-33.927-11.794L0 5.71z"/></g><g transform="translate(779.338 238.971)"><mask id="l" fill="#fff"><use xlink:href="#k"/></mask><use fill="#76A6FF" xlink:href="#k"/><path fill="#90E2FA" mask="url(#l)" d="m67.51 58.81 42.73-29.418-84.038-39.52-31.26 14.747 34.92 48.744z"/></g><g transform="translate(766.252 249.171)"><g transform="translate(0 234.118)"><mask id="n" fill="#fff"><use xlink:href="#m"/></mask><use fill="#559DF5" xlink:href="#m"/><path fill="#8EE4F9" mask="url(#n)" d="m19.479-2.676 13.245 193.65 29.73-6.018-29.73-198.43z"/></g><mask id="q" fill="#fff"><use xlink:href="#o"/></mask><use fill="#C1FDF0" xlink:href="#o"/><path d="m79.334 75.794 7.747 7.955 41.728 358.905h-12.34L79.334 75.794Zm-16.88-11.79 7.748 7.955 37.877 358.905H96.565l-34.11-366.86Zm-16.879-11.79 7.747 7.954L86.93 419.074h-8.44L45.575 52.214Zm-17.724-7.321 7.747 7.955 33.609 358.905h-8.44L27.85 44.893Z" fill="url(#p)" mask="url(#q)"/></g><g transform="translate(146.853 118.029)"><mask id="s" fill="#fff"><use xlink:href="#r"/></mask><use fill="#B0F6FE" xlink:href="#r"/><g mask="url(#s)"><g transform="translate(90.386 37.104)"><mask id="u" fill="#fff"><use xlink:href="#t"/></mask><use fill="#7ED4F5" xlink:href="#t"/><path fill="#32AAFF" mask="url(#u)" d="M96.41-1.687 42.794 301.611H95.36L139.114 0z"/></g></g></g><g transform="translate(196.288 483.771)"><mask id="w" fill="#fff"><use xlink:href="#v"/></mask><use fill="#8EE4F9" xlink:href="#v"/><path fill="#559DF5" mask="url(#w)" d="M40.992 63.118 13.027 187.14h17.237L57.433 59.59z"/><path fill="#1540EF" fill-rule="nonzero" mask="url(#w)" d="m91.854-.12 1.672.24-28.5 196.758-1.673-.24zM98.61-.12l1.672.24-28.5 196.758-1.672-.24zM105.367-.12l1.672.24-28.5 196.758-1.672-.24zM112.124-.12l1.672.24-28.5 196.758-1.672-.24z"/></g><ellipse fill="#76A6FF" cx="514" cy="727.843" rx="514" ry="88.157"/><ellipse fill="#70F7FB" cx="965.448" cy="320.571" rx="11.632" ry="11.657"/><ellipse fill="#00EFDB" cx="968.356" cy="457.543" rx="4.362" ry="4.371"/><ellipse fill="#00EFDB" cx="958.178" cy="437.143" rx="4.362" ry="4.371"/><ellipse fill="#70F7FB" cx="941.457" cy="344.614" rx="5.089" ry="5.1"/><ellipse fill="#00EFCC" cx="809.145" cy="181.414" rx="16.721" ry="16.757"/><ellipse fill="#00EFCC" cx="790.97" cy="211.286" rx="5.816" ry="5.829"/><g transform="translate(159.939 418.2)"><ellipse fill="#FFA82A" cx="42.893" cy="42.986" rx="42.893" ry="42.986"/><path fill="#FFF" d="m33.641 26.971 28.595 19.143-28.595 14.572z"/></g><g transform="translate(98.871 211.286)"><ellipse fill="#82C035" cx="46.528" cy="45.171" rx="46.528" ry="45.171"/><path d="M42.298 26.768v35.134H32.146V26.768h10.152Zm20.303 0v35.134H52.449V26.768h10.152Z" fill="#FFF"/></g><ellipse fill="#FF849B" cx="189.745" cy="107.1" rx="21.083" ry="21.129"/><ellipse fill="#FF849B" cx="210.101" cy="136.243" rx="5.089" ry="5.1"/><path d="m830.38 8.765 14.685 52.224c-19.57 2.866-28.288 10.212-26.155 22.037 3.2 17.738 25.242 7.686 31.102 4.559 5.86-3.128 10.365-10.549 7.514-21-1.902-6.966-7.07-23.501-15.507-49.604.756-2.653 3.855-2.653 9.297 0 5.443 2.653 10.306 3.683 14.59 3.09 5.96 2.217 8.94 5.281 8.94 9.193 1.747-8.13-1.542-13.843-9.867-17.14-12.487-4.946-17.26-1.786-24.223-10.21-7.304-4.007-10.763-1.723-10.376 6.851ZM60.502 447.403l10.166 35.088c-13.548 1.926-19.584 6.861-18.107 14.806 2.216 11.918 17.475 5.165 21.532 3.063 4.057-2.101 7.176-7.087 5.202-14.108-1.316-4.682-4.895-15.79-10.735-33.328.523-1.783 2.669-1.783 6.436 0 3.768 1.782 7.135 2.474 10.1 2.075 4.127 1.49 6.19 3.549 6.19 6.177 1.21-5.462-1.068-9.3-6.83-11.516-8.646-3.323-11.95-1.2-16.77-6.86-5.057-2.692-7.452-1.158-7.184 4.603Z" fill="#3E2BE7"/><path d="M236.372 44.055c29.303-9.338 46.3-15.766 50.993-19.284l19.628 60.548c3.682 11.936-.753 19.403-13.305 22.4-18.827 4.495-21.393-20.201-6.323-23.523 4.522-.772 7.69.462 9.507 3.702l-15.315-43.843c-16.494 8.322-27.57 12.483-33.23 12.483 10.318 28.107 15.173 43.696 14.564 46.767-.913 4.607-1.828 14.724-16.027 14.724-14.199 0-13.49-14.848-6.343-18.003 7.146-3.155 10.6.226 14.464 2.124 2.33-2.872-3.874-22.237-18.613-58.095Z" fill="#FFA82A"/><g transform="translate(876.755 131.143)"><ellipse fill="#EA3127" cx="49.436" cy="49.543" rx="49.436" ry="49.543"/><path d="M46.326 29.336v10.577c12.17-1.083 20.486-.375 24.95 2.123 8.45 4.731 7.725 22.123 0 27.122-5.15 3.332-16.925 3.6-35.323.803V29.336c0-7.087 10.373-7.087 10.373 0ZM32.957 45.864v21.025c0 4.935-7.49 4.857-7.49 0V45.864c0-5.257 7.49-4.948 7.49 0Z" fill="#FFF"/></g></g><g transform="translate(283.528)"><path d="M397.51 14.571c31.533 5.536 49.727 26.92 54.58 64.154 4.854 37.234 22.663 247.804 53.428 631.709 3.964 39.28-17.15 58.919-63.339 58.919H46.694c-33.159.662-48.09-16.39-44.793-51.154 3.297-34.764 27.907-254.882 73.831-660.354C83.457 28.995 100.213 14.57 126 14.57h271.51Z" fill="#7C73FF"/><path d="M397.51 0c31.533 5.535 49.727 26.92 54.58 64.154 4.854 37.234 22.663 247.803 53.428 631.708 3.964 39.28-17.15 58.92-63.339 58.92H46.694c-33.159.661-48.09-16.39-44.793-51.154 3.297-34.765 27.907-254.883 73.831-660.355C83.457 14.424 100.213 0 126 0h271.51Z" fill="#5B5173"/><ellipse fill="#0E0E0E" cx="224.641" cy="22.586" rx="5.089" ry="5.1"/><rect fill="#0E0E0E" x="232.638" y="18.943" width="71.245" height="7.286" rx="3.643"/><g transform="translate(26.172 16.029)"><mask id="y" fill="#fff"><use xlink:href="#x"/></mask><use fill="#F0F9FB" xlink:href="#x"/><path d="M20.032 463.17 67.726 45.41c4.57-24.226 15.876-37.676 33.918-40.348l48.59-.14c3.594 11.102 8.975 16.654 16.143 16.654l139.708-.478c5.653-1.698 9.252-4.751 10.796-9.16l2.417-7.017 36.815.14c22.816 7.046 36.436 21.632 40.862 43.76 2.566 13.046 13.736 124.842 33.51 335.389l12.896-29.55-43.51-342.721-26.885-15.313H78.973l-21.167 41.45L20.032 463.17Z" fill="#AAD7E1" mask="url(#y)"/></g><path d="M142.615 124.247v-1.634h-3.382c-.22-.612-.457-1.169-.677-1.67l-1.791.297c.274.427.53.89.75 1.373h-3.254v1.634h8.354Zm6.435 14.052v-9.727h1.754v-1.69h-5.648v-3.006c1.9-.13 3.638-.464 5.21-1.021l-.841-1.56c-1.792.706-3.803 1.096-6.051 1.133v8.019c-.073 2.766-.64 4.919-1.682 6.478l1.225 1.337c1.334-1.95 2.047-4.548 2.139-7.815v-1.875h2.193v9.727h1.7Zm-11.517.055c1.206 0 1.81-.557 1.81-1.67v-4.975h3.07v-1.596h-3.07v-1.671h3.381v-1.615h-1.864c.274-.557.53-1.17.75-1.856l-1.555-.557c-.219.835-.475 1.633-.767 2.413h-1.737a17.74 17.74 0 0 0-.84-2.394l-1.518.575c.31.557.585 1.17.822 1.82h-1.937v1.614h3.546v1.67h-3.254v1.597h3.254v4.566c0 .372-.22.557-.658.557-.238 0-.494-.037-.768-.111l.384 1.633h.95Zm3.327-2.171 1.462-.557c-.274-.966-.658-2.042-1.133-3.23l-1.426.39a28.235 28.235 0 0 1 1.097 3.397Zm-5.667 1.577c.804-1.392 1.407-3.025 1.846-4.9l-1.572-.334a14.1 14.1 0 0 1-1.7 4.306l1.426.928Zm21.461-13.012 1.572-.817a18.972 18.972 0 0 0-2.065-2.97l-1.59.706c.767.91 1.462 1.93 2.083 3.081Zm9.524 13.384c1.317 0 1.993-.724 1.993-2.154v-14.107h-8.555v1.633h6.873v11.992c0 .668-.237 1.02-.676 1.02l-1.115-.036.438 1.652h1.042Zm-11.48.167v-14.07h-1.682v14.07h1.682Zm9.177-.928v-2.414l1.426-.204v-1.448c-.457.056-.932.112-1.426.186v-6.59h1.261v-1.54h-9.14v1.54h1.06v7.203l-1.389.074.183 1.559c2.285-.148 4.424-.353 6.416-.575v2.209h1.61Zm-1.609-9.133h-3.637V126.9h3.637v1.337Zm0 2.747h-3.637v-1.336h3.637v1.336Zm-3.637 3.007v-1.596h3.637v1.28c-1.133.112-2.358.205-3.637.316Zm31.077 4.362c1.261-1.076 2.303-2.376 3.144-3.88a21.887 21.887 0 0 1 1.59 1.616l1.152-1.374a33.793 33.793 0 0 0-2.01-1.782c.858-2.116 1.352-4.585 1.48-7.425v-.965h-2.76c.164-1.04.329-2.153.511-3.341l-1.7-.167c-.146 1.188-.329 2.357-.512 3.508h-1.791v1.69h1.499a63.672 63.672 0 0 1-1.188 5.104 57.942 57.942 0 0 1 2.468 2.023 12.063 12.063 0 0 1-2.998 3.601l1.115 1.392Zm14.533-11.657v-4.919h-8.135v4.92h8.135Zm-1.59-1.448h-4.936v-2.023h4.935v2.023Zm-10.384 6.646a76.288 76.288 0 0 0-1.426-1.058c.402-1.226.786-2.766 1.152-4.604h1.462c-.146 2.116-.53 3.991-1.188 5.662Zm3.236 6.478c1.882-.743 3.254-1.764 4.094-3.081.22-.372.403-.78.585-1.226.988 1.671 2.468 3.1 4.406 4.251l1.17-1.392c-1.974-1.002-3.437-2.283-4.387-3.86h3.948v-1.653h-4.478c.054-.501.09-1.04.127-1.633h3.675v-1.615h-8.921v1.615h3.583a22.409 22.409 0 0 1-.165 1.633h-4.113v1.652h3.711a7.028 7.028 0 0 1-.457 1.077c-.658 1.113-1.883 2.023-3.692 2.765l.914 1.467Zm19.085-.167c1.243 0 1.882-.687 1.882-2.023v-6.219h6.527v-1.726h-6.527v-3.416h-1.754v3.416h-4.772c.274-1.28.549-2.71.805-4.307 4.57-.074 8.28-.5 11.114-1.28l-.822-1.485c-2.633.816-6.07 1.243-10.31 1.262a10.99 10.99 0 0 1-1.39-.149c-.256 2.228-.695 4.79-1.316 7.685h6.69v5.773c0 .557-.255.854-.73.854-.714 0-1.463-.037-2.25-.111l.385 1.726h2.468Zm7.056-.631 1.645-.836a60.273 60.273 0 0 0-3.071-5.698l-1.536.742c1.06 1.708 2.048 3.638 2.962 5.792Zm-12.943-.056c1.207-1.596 2.267-3.471 3.181-5.624l-1.536-.761c-.877 2.041-1.937 3.805-3.162 5.271l1.517 1.114Zm39.139.761v-7.425a16.07 16.07 0 0 1 1.718 1.67l.988-1.521a16.624 16.624 0 0 0-2.633-2.024c.95-1.299 1.664-2.598 2.102-3.916v-1.485h-1.791c-.22-.78-.549-1.652-.95-2.599l-1.646.483c.366.686.676 1.392.95 2.116h-2.595v1.689h4.296c-.823 1.893-2.395 3.824-4.717 5.828l.549 1.857a34.309 34.309 0 0 0 2.029-1.894v7.221h1.7Zm4.917-6.051v-8.762h4.625v8.762h1.755v-10.45h-8.098v10.45h1.718Zm-2.632 6.2c1.974-.854 3.4-2.042 4.296-3.602.256-.52.494-1.095.713-1.744v3.081c0 1.207.548 1.82 1.645 1.82h1.81c.585 0 1.042-.15 1.335-.428.292-.315.511-1.262.64-2.84l-1.61-.538c-.054 1.058-.127 1.689-.237 1.912-.11.185-.256.278-.439.278h-.987c-.329 0-.475-.204-.475-.575v-3.62h-1.426c.274-1.15.439-2.506.493-4.028v-3.508H254.2v3.508c-.073 2.246-.44 4.065-1.097 5.476-.695 1.318-1.993 2.413-3.912 3.267l.932 1.54Zm19.56-10.135v-1.727h-2.486v-1.707h2.249v-1.653h-2.249v-2.023h-1.7v5.383h-1.042v-3.86h-1.663v3.86h-.914v1.727h7.805Zm2.377 5.791v-7.388h4.332v7.388h1.682v-9.003h-3.18c.072-.52.127-1.076.164-1.652h3.528v-1.652h-8.702v1.652h3.382c-.054.557-.11 1.114-.182 1.652h-2.688v9.003h1.664Zm-2.011 4.25c1.718-.612 2.943-1.484 3.71-2.598.769-1.207 1.19-2.821 1.262-4.845v-3.267h-1.682v3.267c-.073 1.522-.383 2.747-.95 3.713-.585.872-1.682 1.596-3.29 2.19l.95 1.54Zm-7.093-.11c3.912-1.319 6.27-4.066 7.075-8.242l-1.518-.353c-.274 1.3-.75 2.469-1.425 3.471v-4.27h-1.664v4.901h1.188c-1.133 1.318-2.669 2.283-4.643 2.877l.987 1.615Zm.165-3.88c.676-.947 1.224-2.302 1.645-4.047l-1.517-.612c-.311 1.448-.786 2.617-1.426 3.508l1.298 1.15Zm14.405 4.01 1.28-1.3c-.842-1.002-1.865-2.023-3.072-3.044l-1.17 1.132c1.28 1.15 2.267 2.209 2.962 3.211Zm21.48-4.548c1.645-.242 3.363-.706 5.173-1.374v-1.578a23.62 23.62 0 0 1-3.163.965c.987-1.336 2.194-3.47 3.656-6.404l-1.608-.594c-.348.743-.677 1.448-.987 2.098-.585.13-1.189.241-1.774.315.823-1.41 1.646-3.248 2.45-5.513l-1.609-.63a35.371 35.371 0 0 1-2.102 5.587c-.22.334-.457.556-.75.668l.458 1.633c.877-.167 1.736-.334 2.559-.482-.805 1.522-1.463 2.598-1.993 3.211-.22.204-.475.371-.768.501l.457 1.597Zm14.24-5.142v-1.615c.366.297.75.594 1.188.89l.95-1.484c-2.23-1.504-3.82-3.23-4.734-5.198h-1.535c-1.134 2.154-2.76 3.88-4.845 5.216l.95 1.485c.421-.278.824-.575 1.226-.91v1.616h6.8Zm-.036-1.652h-6.728c1.316-1.114 2.45-2.506 3.4-4.195.768 1.577 1.883 2.97 3.328 4.195Zm.2 11.397 1.554-.724a32.285 32.285 0 0 0-2.212-4.603l-1.517.5c.33.595.658 1.244.987 1.95-1.572.353-3.199.612-4.862.76.84-1.113 1.572-2.43 2.193-3.953h5.448v-1.689h-10.164v1.69h2.925c-.695 1.688-1.536 3.099-2.505 4.25l.457 1.355a49.979 49.979 0 0 0 7.13-1.002c.183.445.384.946.567 1.466Zm-14.788-.78c2.193-.445 4.131-1.002 5.85-1.67v-1.69c-1.756.669-3.766 1.226-6.07 1.634l.22 1.726Zm34.641-13.884v-1.708H316.92v1.708h16.343Zm-3.637 10.395v-8.873h-9.031v8.873h9.03Zm-10.42 4.102v-.854h11.809v.854h1.682v-11.509h-1.682v8.984h-11.81v-8.928h-1.681v11.453h1.682Zm8.756-9.281h-2.102v-2.098h2.102v2.098Zm-3.601 0h-2.103v-2.098h2.103v2.098Zm0 3.582h-2.103v-2.134h2.103v2.134Zm3.601 0h-2.102v-2.134h2.102v2.134Zm28.975 5.755v-12.196a23.784 23.784 0 0 0 1.736-4.306l-1.553-.743c-.841 3.044-2.176 5.717-3.967 8l.512 1.764c.548-.631 1.078-1.3 1.572-1.968v9.449h1.7Zm7.604-.019v-3.675h2.615v-1.69h-2.615v-7.09a24.332 24.332 0 0 0 4.443 9.188l1.115-1.43a19.74 19.74 0 0 1-4.186-7.758h3.473v-1.69h-4.845v-3.007h-1.7v3.008h-4.625v1.689h3.236c-.86 3.192-2.23 5.828-4.113 7.907l.896 1.504c2.157-2.45 3.692-5.587 4.606-9.411v7.09h-2.559v1.69h2.56v3.675h1.7Zm21.882-9.782 1.463-1.021c-.804-.891-1.974-1.95-3.473-3.156h3.802v-1.67h-7.312a17.532 17.532 0 0 0-.567-1.597l-2.03.316c.22.39.44.817.622 1.28h-7.275v1.671h4.387a29.208 29.208 0 0 1-2.194 1.69c-.219.11-.493.185-.84.222l.383 1.504c4.79-.167 8.702-.372 11.736-.631.476.482.915.946 1.298 1.392Zm-10.602-2.265c.713-.483 1.517-1.132 2.413-1.912h5.191l-.786.52c.384.334.768.65 1.134.984-2.267.148-4.918.297-7.952.408Zm.164 12.047v-2.97h7.843v.743c0 .37-.256.575-.732.575l-1.755-.074.457 1.708h1.865c1.28 0 1.938-.613 1.938-1.838v-7.926h-11.352v9.782h1.736Zm7.843-7.072h-7.843V130h7.843v1.207Zm0 2.617h-7.843v-1.132h7.843v1.132Z" fill="#B9B6B6" fill-rule="nonzero"/><path d="M252.396 53.914h137.667c7.492.172 11.238 4.29 11.238 12.351v16.08c-.871 4.36-5.876 6.54-15.014 6.54H128.945c-5.64-.815-8.393-3.704-8.26-8.666 0-7.496 1.12-14.021 3.356-19.576.44-4.486 3.796-6.729 10.069-6.729h118.286Z" fill="#F8CA9B"/><path d="M251.812 150.086h152.203c5.89 0 8.835 4.153 8.835 12.46 0 8.307 2.934 45.44 8.802 111.396.143 5.704-3.24 8.619-10.15 8.744H112.98c-5.66-.823-8.424-3.738-8.29-8.744 0-7.563 3.193-46.585 9.577-117.068.442-4.525 3.81-6.788 10.106-6.788h127.438Z" fill="#FF9424"/><use fill="#FFC180" opacity=".813" xlink:href="#z" transform="translate(103.637 147.171)"/><path d="M247.445 348.257h171.752c6.646 0 9.97 4.793 9.97 14.378s3.31 52.43 9.933 128.533c.16 6.582-3.658 9.945-11.455 10.09H90.783c-6.388-.95-9.506-4.314-9.354-10.09 0-8.726 3.602-53.752 10.806-135.078.498-5.222 4.3-7.833 11.404-7.833h143.806Z" fill="#807D2E"/><g transform="translate(78.515 345.343)"><mask id="B" fill="#fff"><use xlink:href="#A"/></mask><use fill="#FFE4C8" xlink:href="#A"/><path d="M3.348 103.308c.437 0 55.377-67 106.246-13.203 33.912 35.865 87.774 18.989 161.583-50.627 29.664-31.307 58.645-25.5 86.944 17.421l8.565 103.83-369.405-2.548c3.753-36.582 5.776-54.873 6.067-54.873Z" fill="#CCC85E" mask="url(#B)"/><ellipse fill="#E98744" mask="url(#B)" cx="106.043" cy="33.963" rx="20.535" ry="20.378"/></g><g fill-rule="nonzero"><path d="M334.561 291.51h-19.136c-1.438 0-2.61 1.191-2.61 2.652v12.376c0 1.462 1.172 2.652 2.61 2.652h5.532l4.036 3.868 4.034-3.868h5.534c1.438 0 2.61-1.19 2.61-2.652v-12.376c0-1.46-1.172-2.651-2.61-2.651Zm.87 15.028a.878.878 0 0 1-.87.884h-6.225l-3.343 3.205-3.346-3.205h-6.222a.878.878 0 0 1-.87-.884v-12.376c0-.488.389-.884.87-.884h19.136c.481 0 .87.396.87.884v12.376Z" fill="#9CD3A7"/><path d="M319.896 299.206a1.855 1.855 0 1 0-.001 3.708 1.855 1.855 0 0 0 0-3.708ZM324.462 299.206a1.855 1.855 0 1 0-.001 3.708 1.855 1.855 0 0 0 .001-3.708ZM329.029 299.206a1.855 1.855 0 1 0-.001 3.708 1.855 1.855 0 0 0 0-3.708Z" fill="#A0D5AB"/></g><path d="M367.431 303.051c-.6.62-.934 1.702-.79 2.575l.803 4.958-4.2-2.335c-.747-.413-1.829-.415-2.574 0l-4.2 2.335.804-4.958c.14-.873-.191-1.955-.79-2.575l-3.412-3.517 4.707-.723c.832-.13 1.707-.8 2.08-1.596l2.1-4.499 2.097 4.499c.372.795 1.247 1.467 2.08 1.596l4.707.723-3.412 3.517Zm5.437-2.8c.447-.459.608-1.03.442-1.564-.166-.532-.615-.891-1.233-.987l-5.666-.87c-.207-.03-.549-.297-.643-.496l-2.534-5.433c-.275-.591-.742-.93-1.278-.93-.533 0-1 .341-1.276.93l-2.533 5.433c-.095.202-.437.465-.646.496l-5.666.87c-.618.096-1.064.455-1.23.987-.166.532-.005 1.103.441 1.565l4.1 4.227c.153.158.286.589.248.81l-.97 5.971c-.104.651.082 1.214.516 1.542.224.17.484.256.757.256.256 0 .526-.075.791-.222l5.07-2.82c.181-.101.61-.101.79 0l5.068 2.82c.551.307 1.118.294 1.549-.034.433-.33.622-.891.518-1.542l-.97-5.97c-.036-.222.097-.653.248-.811l4.107-4.227Z" fill="#FFDE23" fill-rule="nonzero"/><path d="M402.838 291.51c-1.685 0-3.37.667-4.675 2l-.003-.002-.002.002c-1.304-1.333-2.99-2-4.675-2-1.725 0-3.45.699-4.765 2.095-2.602 2.76-2.63 7.216-.09 10.017l-.002.002 8.434 8.95c.289.31.686.484 1.1.484.415 0 .812-.175 1.1-.484l8.435-8.95-.003-.002c2.542-2.8 2.513-7.256-.089-10.017-1.316-1.396-3.04-2.094-4.765-2.094Z" fill="#F88282" fill-rule="nonzero"/><g transform="translate(113.411 293.05)"><mask id="D" fill="#fff"><use xlink:href="#C"/></mask><use fill="#AFD1D2" xlink:href="#C"/><ellipse fill="#639598" mask="url(#D)" cx="12.177" cy="9.234" rx="4.567" ry="4.617"/><ellipse fill="#639598" mask="url(#D)" cx="12.177" cy="26.164" rx="10.655" ry="10.774"/></g><path fill="#639598" d="M146.9 299.205h59.364v1.54H146.9zM146.9 308.44h36.531v1.54H146.9z"/><g fill-rule="nonzero"><path d="M358.06 510.082h-20.288c-1.524 0-2.766 1.276-2.766 2.841v13.26c0 1.566 1.242 2.841 2.766 2.841h5.864l4.28 4.144 4.276-4.144h5.867c1.525 0 2.767-1.275 2.767-2.84v-13.26c0-1.566-1.242-2.842-2.767-2.842Zm.922 16.101c0 .521-.412.947-.923.947h-6.599l-3.544 3.434-3.548-3.434h-6.596a.936.936 0 0 1-.922-.947v-13.26c0-.524.412-.947.922-.947h20.287c.51 0 .923.423.923.947v13.26Z" fill="#8BCC97"/><path d="M342.4 518.327a1.855 1.855 0 1 0-.001 3.708 1.855 1.855 0 0 0 .001-3.708ZM347.241 518.327a1.855 1.855 0 1 0-.001 3.708 1.855 1.855 0 0 0 .001-3.708ZM352.083 518.327a1.855 1.855 0 1 0-.001 3.708 1.855 1.855 0 0 0 0-3.708Z" fill="#9CD3A7"/></g><g fill="#FFDE23" fill-rule="nonzero"><path d="M392.473 522.494c-.639.661-.994 1.816-.842 2.747l.855 5.288-4.47-2.49c-.795-.44-1.947-.443-2.74 0l-4.47 2.49.856-5.288c.15-.931-.204-2.086-.842-2.747l-3.63-3.751 5.01-.771c.885-.138 1.816-.854 2.213-1.703l2.235-4.798 2.232 4.798c.396.849 1.328 1.565 2.213 1.703l5.01.77-3.63 3.752Z"/><path d="M398.26 519.509c.475-.49.646-1.1.47-1.67-.177-.567-.655-.95-1.312-1.052l-6.032-.928c-.22-.033-.584-.317-.684-.529l-2.697-5.796c-.293-.63-.79-.991-1.36-.991-.568 0-1.065.363-1.358.991l-2.696 5.796c-.1.215-.465.496-.687.529l-6.032.928c-.657.102-1.132.485-1.308 1.052-.177.568-.006 1.176.47 1.67l4.363 4.509c.163.168.304.628.264.865l-1.032 6.368c-.112.694.087 1.295.548 1.644.24.182.516.273.807.273.271 0 .56-.08.842-.237l5.395-3.008c.193-.107.65-.107.842 0l5.393 3.008c.587.328 1.19.314 1.649-.036.461-.352.662-.95.55-1.644l-1.031-6.368c-.038-.237.103-.697.263-.865l4.372-4.51Z"/></g><path d="M431.115 512.145c1.607 0 3.103.768 4.123 2.14.573.772.944 1.701 1.068 2.677.22 1.74-.302 3.43-1.416 4.665l-.105.117-8.649 9.238-8.638-9.227-.044-.048a5.948 5.948 0 0 1-1.536-3.895c-.017-1.52.53-2.955 1.534-4.027.99-1.057 2.306-1.64 3.705-1.64 1.364 0 2.655.556 3.637 1.566l.123.126 1.198 1.276.024-.024.023.024 1.194-1.276.123-.126c.981-1.01 2.273-1.566 3.636-1.566" fill="#F88282" fill-rule="nonzero"/><g transform="translate(82.877 510.082)"><mask id="F" fill="#fff"><use xlink:href="#E"/></mask><use fill="#AFD1D2" xlink:href="#E"/><ellipse fill="#639598" mask="url(#F)" cx="12.91" cy="9.812" rx="4.841" ry="4.906"/><ellipse fill="#639598" mask="url(#F)" cx="12.91" cy="27.8" rx="11.296" ry="11.447"/></g><path fill="#639598" d="M114.773 517.777h62.273v1.539h-62.273zM114.773 528.55h37.971v1.54h-37.97z"/><path fill="#FF9424" d="M66.883 590.123v2.934h383.853v-2.934l-187.691-7.266z"/><path fill="#FFC180" d="M70.696 575.571h374.661l5.38 14.572H66.882z"/><path fill="#FE982E" d="M58.16 635.295v2.934h401.3v-2.934l-193.087-7.266z"/><path fill="#FFC180" d="M61.977 620.743h392.097l5.386 14.571H58.16z"/><ellipse fill="#FFF" cx="264.626" cy="201.814" rx="24.718" ry="18.214"/><path fill="#FF9424" d="m259.102 192.343 17.156 11.205-17.448 9.195z"/></g><g><path d="M285.496 444.935c-11.387 79.416-39.594 150.546-84.621 213.388h-50.227l-5.063-33.527c38.495-60.54 62.062-117.929 70.7-172.169 24.14-1.992 47.21-4.556 69.21-7.692Z" fill="#272727"/><path d="m171.373 640.458-31.744-2.684c-5.256 2.818.368 9.047 16.873 18.686 24.758 14.459 43.672 22.406 38.544 9.812-3.419-8.396-11.31-17-23.673-25.814Z" fill="#212121"/><g transform="translate(139.297 631.452)"><mask id="H" fill="#fff"><use xlink:href="#G"/></mask><use fill="#FFBDBD" xlink:href="#G"/><path d="M2.854 14.793C17.355 13.53 33.1 20.468 50.09 35.61l16.218-20.817-25.777-17.35-25.439 2.44-12.238 14.91Z" fill="#FE9595" mask="url(#H)"/></g><path d="m351.176 542.935-24.807 18.157c1.767 4.272 10.036 6.97 24.807 8.091 22.156 1.683 40.038 0 35.904-5.575-2.756-3.716-14.724-10.607-35.904-20.673Z" fill="#262626"/><g transform="translate(340.517 552.42)"><mask id="J" fill="#fff"><use xlink:href="#I"/></mask><use fill="#FFBDBD" xlink:href="#I"/><path d="M-1.612 12.145c12.196-3.287 24.51-2.756 36.942 1.593l6.205-16.203L.059-9.542-9.463.868l7.851 11.277Z" fill="#FE9595" mask="url(#J)"/></g><path d="M159.885 603c23.511 3.52 42.325 15.115 56.441 34.783l-21.497 33.185c-16.607-23.67-35.641-34.73-57.104-33.185 12.309-19.207 19.695-30.8 22.16-34.783Z" fill="#929191"/><g transform="translate(222.614 217.323)"><mask id="L" fill="#fff"><use xlink:href="#K"/></mask><use fill="#FFBDBD" xlink:href="#K"/><path d="M29.478 8.434c11.597-.545 19.853-1.963 24.77-4.254-.157-3.044-.317-5.218-.481-6.52L27.63-3.018l1.847 11.453Z" fill="#FFA3A3" mask="url(#L)"/></g><g transform="translate(348.377 131.968)"><mask id="N" fill="#fff"><use xlink:href="#M"/></mask><use fill="#FFBDBD" xlink:href="#M"/><path d="M121.366 71.426c-2.805-3.456-4.208-7.793-4.208-13.012-.76 6.836-.013 12.222 2.241 16.16 2.255 3.937 2.91 2.888 1.967-3.148Z" fill="#FE9595" mask="url(#N)"/><path d="M105.522 41.114c-.555 9.117-1.212 15.909-1.971 20.373 0 5.969 1.871 9.265 5.614 9.89 4.63.571 7.199-2.725 7.706-9.89-1.785 5.693-4.142 8.445-7.07 8.256-2.93-.188-4.356-2.94-4.28-8.256V41.114ZM103.55 0c-2.11 2.182-3.164 4.526-3.164 7.032 0 3.76-8.19 37.232-15.663 46.946-2.826-2.729-5.863-4.145-9.11-4.25-3.248-.103 3.107-16.074 19.066-47.913L103.55 0ZM9.512 106.916v49.917l-13.882-1.601-1.877-45.967z" fill="#FE9595" mask="url(#N)"/></g><path d="M156.717 329.964c-1.276 4.855 7.017 7.35 24.88 7.485 17.863.135 27.867-5.033 30.013-15.504l-51.77-.3-3.123 8.32Z" fill="#F99703"/><g transform="translate(156.589 236.29)"><mask id="P" fill="#fff"><use xlink:href="#O"/></mask><use fill="#FFD667" xlink:href="#O"/><path d="m57.005 63.579-6.166 25.308-4.293 15.299c2.855 13.348 13.694 17.153 32.518 11.416-26.922-2.205-24.839-12.143-26.612-14.193.524-3.247.071-7.84 1.127-12.522.913-4.049 2.055-12.485 3.426-25.308Z" fill="#F9B703" mask="url(#P)"/></g><path d="M185.194 391.905c-12.174 85.94 34.76 99.081 140.8 39.423 7.005-2.286 10.299 1.814 9.882 12.3-.417 10.485-2.82 39.381-7.211 86.69l25.644 25.263 34.912-25.264L401.05 411.38c5.165-44.934-15.399-61.499-61.692-49.696-46.292 11.803-97.68 21.877-154.163 30.222Z" fill="#424242"/><path d="m330.589 530.666-2.648 30.17c32.301-5.109 52.567-3.7 60.796 4.229a537.225 537.225 0 0 0 2.085-34.399c-20.397-6.824-40.475-6.824-60.233 0Z" fill="#929191"/><g transform="translate(200.606 105.097)"><mask id="R" fill="#fff"><use xlink:href="#Q"/></mask><use fill="#FFBDBD" xlink:href="#Q"/><ellipse fill="#FFA5A2" mask="url(#R)" cx="58.166" cy="80.687" rx="10.418" ry="10.3"/><ellipse fill="#FFA5A2" mask="url(#R)" cx="101.431" cy="77.254" rx="10.418" ry="10.3"/><path d="M98.826 35.794c-11.46-1.138-17.191-3.61-17.191-7.414-2.967 9.779-12.941 13.474-29.922 11.087-1.76 11.888-8.621 17.675-20.586 17.361 1.676 8.948.38 13.376-3.887 13.285-6.402-.136-13.605-10.292-24.318 0L0 55.141l32.27-24.79 37.537-18.075 29.02 4.872v18.646Z" fill="#FD9B9B" mask="url(#R)"/><path d="M21.305 71.795c-5.678-3.41-9.882-4.156-12.612-2.238C4.6 72.433 4.6 80.109 11.696 86.417c-1.148-3.44-3.528-8.716-3.138-10.779.163-.865 1.138 3.109 7.82 5.237-6.682-6.102-5.772-9.56-4.682-9.838 1.395-.355 4.598-.103 9.61.758Z" fill="#FD9B9B" mask="url(#R)"/><path d="M70.632 93.8c3.28.333 12.088-.333 16.765-2.154 3.118-1.214 3.604.404 1.458 4.853-2.107 3.69-4.772 5.655-7.996 5.893-4.834.358-9.913-3.596-11.164-4.647-1.25-1.05-2.343-4.278.937-3.945Z" fill="#FF8989" mask="url(#R)"/></g><path d="M292.503 161.353c.39 3.826.597 6.026.846 9.02.25 2.996-6.794 4.017-7.121.3-.328-3.718-.4-4.881-.721-8.62-.322-3.74 6.604-4.525 6.996-.7ZM272.096 164.453c.378 3.343.388 3.826.806 8.338.418 4.511-6.77 4.511-7.122.396-.352-4.115-.434-4.469-.713-8.273-.278-3.805 6.651-3.805 7.029-.461Z" fill="#424141"/><use fill="#6F3AB9" xlink:href="#S" transform="translate(164.45 64)"/><g transform="translate(232.047 252.097)"><path d="M90.622 5.28C89.273.846 85.768-.795 80.107.356 71.614 2.083 11.413 14.059 6.93 15.587 2.449 17.115 0 21.833 0 29.788v93.34c0 7.628 11.366 7.628 12.622 7.242L88.408 7.46l2.214-2.18Z" fill="#3A3939"/><path d="m39.584 11.725 45.022-9.558c4.41-.485 6.616.872 6.616 4.07 0 3.198.14 36.01.418 98.438.045 5.306-3.005 8.722-9.15 10.246-6.145 1.525-28.095 6.523-65.851 14.994-9.05 1.92-13.574-.898-13.574-8.455V30.746c-.207-8.064 2.68-12.698 8.658-13.902 5.98-1.204 15.266-2.91 27.86-5.119Z" fill="#5D5C5C"/><path d="M13.845 14.453c1.178-.281 2.422-.629 3.967-.93 1.545-.3 2.056.621.915.93-1.14.309-2.34.606-3.88 1-1.539.392-2.18-.72-1.002-1Z" fill="#242424"/><ellipse fill="#242424" cx="40.729" cy="9.839" rx="1.018" ry="1"/><ellipse fill="#242424" cx="50.911" cy="7.768" rx="1.018" ry="1"/><path d="M1.028 31.713v3.893c0 .889 1 .827 1 0v-3.893c0-.904-1-.807-1 0ZM1.028 41.034v3.894c0 .888 1 .826 1 0v-3.894c0-.903-1-.806-1 0Z" fill="#242424"/><path d="M55.184 46.432c1.455-1.827 3.797-.444 2.454 1.346l-2.452 3.272a7.92 7.92 0 0 1 2.015 5.299c0 4.344-3.46 7.865-7.727 7.865s-7.727-3.521-7.727-7.865 3.46-7.865 7.727-7.865c1.253 0 2.435.303 3.481.842a142.22 142.22 0 0 1 2.229-2.894Z" fill="#3E3D3D"/><g transform="translate(8.146 23.821)"><rect fill="#3E3D3D" y="1.081" width="9.164" height="22.695" rx="4.582"/><path d="M0 5.54v14.024c0 6.213 9.164 6.055 9.164 0V5.539C9.164-.812 0-.812 0 5.54Z" fill="#403F3F"/><ellipse fill="#2A2A2A" cx="4.582" cy="18.373" rx="1.527" ry="2.161"/><ellipse fill="#282727" cx="4.582" cy="6.484" rx="3.564" ry="4.323"/><ellipse fill="#343434" cx="4.582" cy="6.484" rx="2.546" ry="3.242"/><ellipse fill="#545454" cx="4.582" cy="6.484" rx="1.527" ry="2.161"/><circle stroke="#979797" fill="#6B6A6A" cx="4.582" cy="13.509" r="1"/></g></g><g transform="translate(158.161 286.871)"><mask id="U" fill="#fff"><use xlink:href="#T"/></mask><use fill="#FFBDBD" xlink:href="#T"/><path d="M0 45.829C6.33 37.57 15.26 34.205 26.792 35.73c11.532 1.526 19.033 4.14 22.502 7.843l3.426-9.998-19.296-14.423L2.65 27.452l-5.242 8.279L0 45.829Z" fill="#FE9595" mask="url(#U)"/></g><path d="M338.725 571.387c12.594 4.852 22.832 5.297 30.714 1.337 1.22-.365 1.735 1.319 1.544 5.051-.191 3.733-.191 7.62 0 11.664l21.784 8.512c7.97 2.363 15.31 3.998 22.019 4.906 10.064 1.362 18.53 5.092 17.334 15.176l-.784 4.498-107.083-7.268c2.832-11.598 7.164-20.746 12.995-27.443.268-8.148.444-12.693.529-13.635.084-.943.4-1.875.948-2.798Z" fill="#333"/><path d="M325.423 612.47c46.572.09 81.83 2.265 105.771 6.525 2.425.56 3.025 3.185 1.798 7.871-31.432-3.812-67.788-5.907-109.066-6.283-1.164.059-1.632-.74-1.407-2.395.22-2.007 1.188-3.913 2.904-5.719Z" fill="#FFF"/><path d="m325.248 612.066-.12.127c-1.693 1.781-2.688 3.671-2.976 5.666l-.036.285c-.254 1.864.363 2.916 1.83 2.841l3.426.036c39.829.458 75.027 2.54 105.571 6.245l.353.043.09-.341c1.275-4.878.622-7.736-2.1-8.365l-1.453-.254c-23.464-4.018-57.331-6.108-101.627-6.275l-2.958-.008Zm.238.93.114-.124 2.601.008c45.177.17 79.486 2.341 102.922 6.511l.13.033c1.87.52 2.428 2.64 1.548 6.517l-.115.483-2.277-.271c-30.84-3.616-66.334-5.607-106.48-5.973-.848.043-1.177-.458-1.028-1.77l.02-.168c.202-1.833 1.053-3.578 2.565-5.247Z" fill="#212121" fill-rule="nonzero"/><path d="M409.895 613.868c.57 3.25.062 6.598-1.522 10.043l-.29.61-1.672-.183c1.667-3.37 2.288-6.64 1.865-9.81l-.091-.594 1.71-.066Z" fill="#333" fill-rule="nonzero"/><path d="m324.252 616.297.002-.805 4.98.016c38.884.166 64.944 1.176 78.198 3.033l.414.06-.117.796-.834-.117c-13.333-1.813-39.228-2.802-77.668-2.966l-4.975-.017Z" fill="#333" fill-rule="nonzero"/><path d="M322.995 619.677c17.49-1.364 37.51-1.054 60.056.929 33.82 2.974 40.71 4.105 46.504 4.993 5.793.89 5.898 2.922-9.886 3.946-15.785 1.024-76.663-3.105-87.67-6.119-7.339-2.009-10.34-3.259-9.004-3.749Z" fill="#E6E6E6"/><path d="M322.773 619.946c17.49-1.364 37.51-1.055 60.056.928 33.82 2.974 40.71 4.105 46.504 4.994 5.793.889 5.898 2.922-9.886 3.946-15.785 1.024-76.663-3.106-87.67-6.12-7.34-2.008-10.34-3.258-9.004-3.748Z" fill="#E6E6E6"/><path d="m322.741 619.346-.109.023c-.585.215-.771.717-.342 1.166.259.27.774.555 1.575.889l.342.138c1.555.613 4.04 1.386 7.461 2.322 10.885 2.98 71.716 7.177 87.805 6.133l1.245-.085c6.62-.477 10.623-1.17 11.976-1.997.864-.528.816-1.276-.039-1.767-.59-.338-1.617-.627-2.983-.852l-2.408-.366c-9.306-1.378-18.652-2.407-43.58-4.603l-.819-.073c-22.568-1.984-42.61-2.294-60.124-.928Zm64.797 2.15c23.77 2.118 32.156 3.102 41.733 4.571l.512.085c1.153.203 2.011.453 2.466.714l.133.077c.2.12.158.14-.114.306-1.276.78-5.631 1.496-12.848 1.964-16.005 1.039-76.749-3.152-87.536-6.105l-1.5-.417c-2.866-.811-4.936-1.482-6.205-2.01l-.17-.072-.307-.138a5.601 5.601 0 0 1-.572-.301l-.063-.042-.262.02c17.137-1.335 36.709-1.063 58.716.819l6.017.53Z" fill="#212121" fill-rule="nonzero"/><path d="m371.909 587.864.095-.031.742-.197c8.178-2.113 12.838-1.325 13.564 2.78.405 2.285-.8 3.628-3.206 3.628-1.211 0-2.791-.321-4.754-.961l-.402-.134.21.225c1.395 1.507 2.317 2.839 2.767 4.01l.07.195c.789 2.286-.249 4.004-2.814 4.84-5.048 1.645-7.63-2.527-7.844-11.637a.857.857 0 0 1 .841-.872.858.858 0 0 1 .882.832l.021.705c.284 7.61 2.167 10.46 5.56 9.353 1.706-.556 2.182-1.342 1.723-2.671-.543-1.576-2.36-3.75-5.447-6.453l-.312-.272-1.956-1.96-.25-.804.01-.035a.856.856 0 0 1 .5-.54Zm12.703 2.845c-.46-2.607-3.908-3.266-10.713-1.605l-.605.152 1.221.525c3.84 1.652 6.664 2.5 8.412 2.555l.177.003c1.357 0 1.724-.41 1.508-1.63Z" fill="#FFF" fill-rule="nonzero"/><g><path d="M146.735 650.42c13.644 13.525 22.534 20.288 26.668 20.288 1.406.042.412 1.997-2.982 5.864l13.683 36.448 20.305 11.343c5.879 4.793 6.737 10.813 2.576 18.06l-22.808-2.08-68.773-55.107c4.301-10.741 11.293-18.288 20.974-22.642 4.55-5.798 7.2-9.277 7.953-10.436.752-1.16 1.553-1.739 2.404-1.739Z" fill="#272727"/><path d="m116.534 681.76 51.84 44.634c1.225 1.453 7.056 4.133 17.495 8.04 10.44 3.907 17.205 6.434 20.297 7.581 1.179.88 1.768 1.963 1.768 3.248 0 1.927-1.094 4.603-7.458 3.265-4.242-.892-12.9-3.887-25.972-8.985-4.475-2.27-8.565-4.728-12.27-7.374-3.705-2.647-20.638-17.49-50.8-44.53-.766-2.115-.518-3.67.745-4.665 1.263-.994 2.715-1.399 4.355-1.214Z" fill="#FFF"/><path d="M112.335 683.061c-1.371 1.08-1.678 2.743-.958 4.899l.117.33 11.975 10.716c22.503 20.093 35.43 31.358 38.82 33.827l.117.083c3.722 2.66 7.83 5.128 12.322 7.407l2.27.882c11.68 4.514 19.534 7.207 23.612 8.097l.19.04c5.546 1.166 7.951-.504 7.951-3.667 0-1.421-.654-2.623-1.933-3.579l-.102-.055-21.21-7.925c-9.77-3.685-15.29-6.247-16.411-7.576l-51.983-44.763-.124-.014c-1.746-.197-3.305.237-4.653 1.298Zm4.293-.505.146.013 51.743 44.55c1.174 1.4 6.409 3.857 15.807 7.43l22.051 8.243-.044-.034c1.078.806 1.602 1.768 1.602 2.917 0 2.56-1.833 3.879-6.697 2.916l-.268-.055c-4.213-.885-12.857-3.876-25.908-8.965-4.126-2.095-7.949-4.367-11.439-6.802l-.857-.607-.247-.183c-4.206-3.158-20.143-17.128-47.761-41.868l-2.563-2.296.034.096c-.712-1.964-.493-3.33.612-4.2 1.109-.874 2.365-1.257 3.789-1.155Z" fill="#242424" fill-rule="nonzero"/><path fill="#272727" fill-rule="nonzero" d="m178.927 731.907.763.297-3.284 8.55-.763-.297z"/><path d="m112.45 683.075 49.04 43.954c6 4.389 11.195 7.465 15.577 9.227l.409.162-.294.768c-4.41-1.71-9.616-4.741-15.654-9.115l-.551-.402-49.07-43.98.544-.614Z" fill="#272727" fill-rule="nonzero"/><path d="M168.37 677.34a.861.861 0 0 1 1.177-.35.89.89 0 0 1 .345 1.197l-.615 1.157c-5.522 10.491-6.685 16.154-4.183 16.982 4.341 1.436 7.055-1.583 6.282-8.578l-.044-.374-.03-.11c-.454-1.733-.919-3.685-1.4-5.864l-.244-1.122 1.672-.465c.817 2.51 1.365 4.792 1.655 6.831l.04.302.07.257c.478 1.78.942 3.303 1.39 4.566l.225.617.195.503c.837 2.093 1.57 3.102 1.899 3.095 1.53-.033 3.737-1.588 4.18-3.603.673-3.054-1.951-7.282-9-12.541a.891.891 0 0 1-.186-1.233.86.86 0 0 1 1.214-.19c7.544 5.63 10.528 10.438 9.667 14.35-.631 2.868-3.56 4.93-5.838 4.98-1.335.03-2.555-1.54-3.793-4.818l-.077-.202-.018.099a9.358 9.358 0 0 1-.687 2.1l-.102.207c-1.495 2.931-4.44 3.917-7.608 2.87-4.358-1.441-2.83-8.326 3.813-20.662Z" fill="#FFF" fill-rule="nonzero"/></g></g></g></svg>