<?xml version="1.0" encoding="utf-8"?>
<!-- Generator: Adobe Illustrator 25.0.0, SVG Export Plug-In . SVG Version: 6.00 Build 0)  -->
<svg version="1.1" id="图层_1" xmlns="http://www.w3.org/2000/svg" xmlns:xlink="http://www.w3.org/1999/xlink" x="0px"
	y="0px" viewBox="0 0 200 90" enable-background="new 0 0 200 90" xml:space="preserve">
	<g id="箭头">
		<animateTransform accumulate="none" additive="replace" attributeName="transform" begin="0" calcMode="spline"
			dur="3s" fill="freeze" restart="always" type="translate" values="0 0;0 0;0 -60"
			keySplines=".42,0,.58,1;.42,0,.58,1" repeatCount="indefinite">
		</animateTransform>

		<animate accumulate="none" additive="replace" attributeName="opacity" begin="0" calcMode="spline" dur="3s"
			fill="remove" keySplines=".42,0,.58,1;.42,0,.58,1" repeatCount="indefinite" restart="always" values="0;1;0">
		</animate>
		<g>
			<path fill-rule="evenodd" clip-rule="evenodd" fill="#969696" d="M99.3,69.5c0.2-0.2,0.4-0.3,0.6-0.3h0.1l0,0h0.1
			c0.2,0,0.4,0.1,0.6,0.2l0.1,0.1l0,0l0,0l0,0l5.9,5.8c0.4,0.4,0.4,1,0,1.4l0,0c-0.4,0.4-1.1,0.4-1.5,0l-5.2-5.1l-5.2,5.1
			c-0.4,0.4-1,0.4-1.4,0.1l-0.1-0.1l0,0c-0.4-0.4-0.4-1,0-1.4l0,0L99.3,69.5L99.3,69.5L99.3,69.5L99.3,69.5z" />
			<path fill-rule="evenodd" clip-rule="evenodd" fill="#C8C8C8" d="M99.3,79.5c0.2-0.2,0.4-0.3,0.6-0.3h0.1l0,0h0.1
			c0.2,0,0.4,0.1,0.6,0.2l0.1,0.1l0,0l0,0l0,0l5.9,5.8c0.4,0.4,0.4,1,0,1.4l0,0c-0.4,0.4-1.1,0.4-1.5,0l-5.2-5.1l-5.2,5.1
			c-0.4,0.4-1,0.4-1.4,0.1l-0.1-0.1l0,0c-0.4-0.4-0.4-1,0-1.4l0,0L99.3,79.5L99.3,79.5L99.3,79.5L99.3,79.5z" />
			<path fill-rule="evenodd" clip-rule="evenodd" fill="#646464" d="M99.3,59.5c0.2-0.2,0.4-0.3,0.6-0.3h0.1l0,0h0.1
			c0.2,0,0.4,0.1,0.6,0.2l0.1,0.1l0,0l0,0l0,0l5.9,5.8c0.4,0.4,0.4,1,0,1.4l0,0c-0.4,0.4-1.1,0.4-1.5,0l-5.2-5.1l-5.2,5.1
			c-0.4,0.4-1,0.4-1.4,0.1l-0.1-0.1l0,0c-0.4-0.4-0.4-1,0-1.4l0,0L99.3,59.5L99.3,59.5L99.3,59.5L99.3,59.5z" />
		</g>
	</g>
	<g>
		<path fill="#646464" d="M21.6,38c0,0.7-0.2,1-0.6,1.2c-0.5,0.2-1.3,0.2-2.6,0.2c-0.1-0.3-0.2-0.8-0.4-1.1c1,0,2,0,2.2,0
		c0.3,0,0.4-0.1,0.4-0.4v-7.9h-9.1v9.3h-1.1V29h3.8c0.3-0.7,0.7-1.7,0.9-2.4l1.2,0.3c-0.3,0.7-0.6,1.5-1,2.1h6.2V38z M14.3,36.5v1
		h-1v-5.6h5.4v4.6H14.3z M14.3,32.8v2.7h3.5v-2.7H14.3z" />
		<path fill="#646464" d="M36.2,37.7v1H23.8v-1H29V26.8h1.1v4.3h5.2v1.1h-5.2v5.5H36.2z" />
		<path fill="#646464" d="M40,32.9c-0.5-0.4-1.6-1.1-2.4-1.5l0.6-0.7c0.8,0.4,1.9,1,2.4,1.4L40,32.9z M38.1,38.5
		c0.6-1.1,1.6-2.8,2.2-4.4l0.8,0.7c-0.6,1.4-1.4,3.1-2.1,4.4L38.1,38.5z M40.8,29.3c-0.5-0.5-1.6-1.3-2.5-1.8l0.7-0.7
		c0.8,0.5,1.9,1.2,2.5,1.7L40.8,29.3z M50.3,30.9v2.4h-1v-1.5h-7.2v1.5h-1v-2.4h1.5v-3.8h6.2v3.8H50.3z M48.9,38.4
		c0,0.5-0.1,0.8-0.5,0.9c-0.4,0.2-1,0.2-2,0.2c-0.1-0.3-0.2-0.6-0.3-0.9c0.7,0,1.4,0,1.5,0c0.2,0,0.3-0.1,0.3-0.2v-1.3h-4.4v2.3h-1
		v-6.7h6.4V38.4z M43.5,33.6v1h4.4v-1H43.5z M47.9,36.3v-1h-4.4v1H47.9z M43.5,28v0.9h2.8v2h1.5V28H43.5z M43.5,30.9h1.9v-1.3h-1.9
		V30.9z" />
		<path fill="#646464" d="M57.2,37.4c-0.1-0.3-0.2-0.6-0.3-0.9c-3.9,0.9-4.4,1-4.7,1.2v-0.1c0,0,0,0,0,0c0-0.2-0.2-0.7-0.3-1
		c0.2-0.1,0.4-0.4,0.6-1c0.2-0.5,0.8-2.1,1.1-3.7h-1.9v-1h6.1v1h-3.1c-0.4,1.5-0.9,3-1.4,4.3l3.3-0.7c-0.3-0.7-0.5-1.5-0.8-2.1
		l0.9-0.2c0.5,1.2,1.2,2.9,1.4,3.9L57.2,37.4z M57.7,28.7h-5.4v-0.9h5.4V28.7z M64.2,29.8c0,0,0,0.4,0,0.5c-0.2,5.7-0.4,7.7-0.8,8.3
		c-0.3,0.4-0.6,0.5-1,0.5c-0.4,0-1.2,0-1.9,0c0-0.3-0.1-0.7-0.3-1c0.8,0.1,1.5,0.1,1.8,0.1c0.2,0,0.4,0,0.5-0.2
		c0.4-0.4,0.6-2.2,0.7-7.2h-2.1c-0.2,3.4-0.8,6.6-2.8,8.6c-0.2-0.3-0.5-0.6-0.8-0.8c1.9-1.7,2.5-4.6,2.6-7.8h-1.9v-1h2c0-1,0-2,0-3
		h1c0,1,0,2,0,3H64.2z" />
		<path fill="#646464" d="M69.8,33.5c-0.5,0.2-1,0.4-1.5,0.6v4.1c0,0.5-0.1,0.8-0.5,1c-0.3,0.2-0.9,0.2-1.7,0.2
		c0-0.3-0.2-0.7-0.3-0.9c0.6,0,1.1,0,1.2,0c0.2,0,0.2,0,0.2-0.2v-3.7L65.9,35l-0.3-1c0.5-0.1,1.1-0.4,1.8-0.6v-3h-1.7v-1h1.7v-2.8h1
		v2.8h1.3v1h-1.3v2.6l1.3-0.5L69.8,33.5z M75.1,34.4c0.8,1.4,2.1,2.7,3.4,3.4c-0.2,0.2-0.5,0.5-0.7,0.8c-1.2-0.8-2.5-2.2-3.3-3.6
		v4.4h-1V35c-0.9,1.6-2.2,2.9-3.6,3.6c-0.1-0.3-0.4-0.6-0.7-0.8c1.4-0.6,2.8-1.9,3.6-3.4H70v-1h3.5v-1.5h1v1.5h3.6v1H75.1z
		 M73.5,29.5c-0.7,1.2-1.8,2.3-2.8,3.1c-0.1-0.2-0.5-0.5-0.8-0.7c1-0.6,2-1.6,2.6-2.7L73.5,29.5z M71,29.9h-0.9v-2.5h7.8v2.5H77
		v-1.6h-6V29.9z M75.2,29.1c1,0.8,2.1,2,2.7,2.8l-0.8,0.6c-0.5-0.8-1.7-2-2.6-2.9L75.2,29.1z" />
		<path fill="#646464" d="M84,36.8c-0.9,0.9-2.2,1.8-3.3,2.4c-0.2-0.2-0.6-0.5-0.8-0.7c1.1-0.5,2.4-1.3,3.2-2L84,36.8z M86.7,35.7
		v2.5c0,0.5-0.1,0.8-0.6,1c-0.4,0.2-1.1,0.2-2.2,0.2c-0.1-0.3-0.2-0.7-0.4-1c0.9,0,1.6,0,1.8,0c0.2,0,0.3-0.1,0.3-0.2v-2.4
		c-4,0.3-4.6,0.3-5,0.4c0-0.2-0.2-0.7-0.3-0.9c0.5-0.1,1.1-0.3,1.9-0.6c0.4-0.2,1.4-0.6,2.6-1.1c-2.6,0.2-3,0.2-3.2,0.3
		c0-0.2-0.2-0.7-0.3-0.9c0.3,0,0.6-0.2,1-0.4c0.4-0.2,1.6-0.9,2.6-1.6H81v1.7h-1v-2.6h5.5v-1.3h-5.4v-0.9h5.4v-1.2h1.1v1.2h5.4v0.9
		h-5.4v1.3h5.5v2.6h-1V31h-5.3l0.4,0.3c-0.9,0.6-1.8,1.2-2.8,1.7l3.1-0.2c0.7-0.4,1.3-0.7,2-1.1l0.7,0.6c-1.9,1.1-3.9,2.1-5.8,2.8
		l6.1-0.3c-0.4-0.4-0.8-0.7-1.1-1l0.7-0.5c1,0.8,2.2,2,2.8,2.7l-0.8,0.5c-0.2-0.3-0.5-0.7-0.9-1.1L86.7,35.7z M88.6,36.3
		c1.2,0.6,2.7,1.5,3.4,2.2l-0.8,0.6c-0.7-0.6-2.2-1.6-3.4-2.2L88.6,36.3z" />
		<path fill="#646464" d="M97,30.3c-0.5,2.1-1.3,4.6-2.6,6.2c-0.2-0.2-0.7-0.5-0.9-0.6c1.3-1.5,2-3.9,2.4-5.8L97,30.3z M100.6,26.8
		V38c0,0.8-0.2,1.1-0.7,1.3c-0.5,0.2-1.4,0.2-2.7,0.2c-0.1-0.3-0.3-0.8-0.4-1.1c1,0,2,0,2.3,0c0.3,0,0.4-0.1,0.4-0.4V26.8H100.6z
		 M103.8,29.9c1.2,2,2.4,4.5,2.7,6.2l-1.1,0.5c-0.3-1.6-1.4-4.2-2.6-6.2L103.8,29.9z" />
		<path fill="#646464" d="M111.8,35.2c-0.2-0.4-0.6-1.3-1-2v6.2h-1v-5.9c-0.5,1.3-1.1,2.6-1.7,3.5c-0.1-0.3-0.4-0.7-0.5-1
		c0.8-1,1.6-2.8,2.1-4.4h-1.8v-1h2v-2.3c-0.5,0.1-1,0.2-1.5,0.3c-0.1-0.2-0.2-0.6-0.3-0.8c1.3-0.3,2.8-0.7,3.7-1.1l0.7,0.8
		c-0.4,0.2-1,0.4-1.6,0.5v2.5h1.7v1h-1.7v0.3c0.4,0.5,1.5,2,1.7,2.4L111.8,35.2z M120.3,38.1v1h-8.1v-1h3.7v-1.9h-2.7v-0.9h2.7v-1.8
		h-3.1v-1h7.2v1h-3.1v1.8h2.8v0.9h-2.8v1.9H120.3z M119.5,31.2h-6.4v-4.1h6.4V31.2z M118.5,28h-4.4v2.3h4.4V28z" />
		<path fill="#646464" d="M134.3,28.2v1h-10.5V32c0,2.2-0.2,5.3-1.4,7.4c-0.2-0.2-0.6-0.5-0.9-0.6c1.1-2,1.2-4.8,1.2-6.8v-3.9h5.5
		c-0.2-0.4-0.4-0.9-0.6-1.3l1-0.3c0.3,0.5,0.6,1.2,0.8,1.6H134.3z M133.5,33.6l0.7,0.3c-0.7,1-1.5,2.1-2.2,2.8l-0.8-0.4
		c0.4-0.4,1-1.1,1.4-1.7h-3v3.7c0,0.6-0.2,0.9-0.7,1.1c-0.5,0.2-1.3,0.2-2.6,0.2c-0.1-0.3-0.2-0.7-0.3-1c1,0,2,0,2.2,0
		c0.3,0,0.3-0.1,0.3-0.3v-3.7h-4.3v-0.9h4.9c-0.9-0.5-2-1-2.9-1.4l0.6-0.6c0.6,0.3,1.4,0.6,2,0.9c0.8-0.4,1.6-1,2.2-1.5H125v-0.9h7
		l0.2-0.1l0.7,0.5c-0.8,0.9-2,1.7-3.2,2.4c0.4,0.2,0.8,0.4,1.1,0.6l-0.1,0.1h2.6L133.5,33.6z" />
		<path fill="#646464" d="M139.5,26.8c-0.2,0.7-0.5,1.5-0.7,2.1h2.3V38h-3.9v1.1h-1V28.9h1.6c0.2-0.7,0.5-1.6,0.6-2.3L139.5,26.8z
		 M140.2,29.8h-2.9v2.9h2.9V29.8z M140.2,37v-3.4h-2.9V37H140.2z M148,29.4c-0.2,6.4-0.4,8.5-1,9.2c-0.3,0.4-0.6,0.5-1.1,0.6
		c-0.5,0.1-1.3,0-2.1,0c0-0.3-0.2-0.7-0.3-1c0.9,0.1,1.8,0.1,2.1,0.1c0.3,0,0.4,0,0.6-0.2c0.5-0.5,0.7-2.6,0.9-8.2h-3.6
		c-0.4,0.9-0.8,1.8-1.3,2.5c-0.2-0.2-0.6-0.4-0.9-0.6c0.9-1.2,1.7-3.2,2.1-5.1l1,0.2c-0.2,0.7-0.4,1.4-0.6,2h4.2V29.4z M144.9,35.7
		c-0.4-0.8-1.4-2.2-2.1-3.2l0.8-0.5c0.8,1,1.8,2.3,2.2,3.2L144.9,35.7z" />
		<path fill="#646464" d="M151.8,35.3c-0.3,1-0.9,2-1.4,2.6c-0.2-0.1-0.5-0.4-0.7-0.5c0.6-0.6,1-1.5,1.3-2.3L151.8,35.3z M153.5,34.5
		v3.6c0,0.5-0.1,0.7-0.4,0.9c-0.3,0.2-0.8,0.2-1.5,0.2c0-0.3-0.2-0.6-0.3-0.9c0.5,0,0.9,0,1.1,0c0.1,0,0.2,0,0.2-0.2v-3.5h-2.8v-0.9
		h2.8v-1.5h-2.9v-0.9h3.9c0.3-0.6,0.6-1.6,0.8-2.2l1,0.2c-0.2,0.7-0.5,1.4-0.8,2h1.8v0.9h-2.8v1.5h2.6v0.9H153.5z M156,29h-6.1v-0.9
		h2.7c-0.2-0.4-0.4-0.9-0.6-1.3l0.9-0.2c0.3,0.5,0.6,1.1,0.7,1.5h2.3V29z M151.7,29.1c0.3,0.6,0.5,1.4,0.6,2l-0.9,0.2
		c-0.1-0.5-0.3-1.4-0.5-2L151.7,29.1z M154.8,35c0.4,0.7,1,1.6,1.2,2.2l-0.7,0.4c-0.2-0.6-0.7-1.6-1.1-2.3L154.8,35z M162.4,32.3
		h-1.5v7.1h-1v-7.1h-2.1v0.4c0,2-0.2,4.7-1.5,6.5c-0.2-0.2-0.6-0.5-0.8-0.6c1.2-1.7,1.3-4,1.3-5.9V28c1.6-0.3,3.3-0.7,4.4-1.1
		l0.8,0.8c-1.1,0.4-2.8,0.8-4.2,1v2.7h4.7V32.3z" />
		<path fill="#646464" d="M168.2,27.5c0.7,0.9,1.5,2.2,1.8,3l-0.9,0.4c-0.1-0.2-0.2-0.5-0.3-0.7c-3.8,0.3-4.3,0.4-4.6,0.5
		c-0.1-0.2-0.2-0.7-0.3-1c0.2-0.1,0.4-0.3,0.6-0.5c0.2-0.3,1-1.4,1.5-2.5l1.1,0.3c-0.5,0.9-1.1,1.9-1.7,2.6l3.1-0.2
		c-0.3-0.5-0.7-1.1-1-1.6L168.2,27.5z M169.4,38.2c0,0.5-0.1,0.8-0.5,1c-0.4,0.2-1,0.2-1.9,0.2c-0.1-0.3-0.2-0.7-0.3-1
		c0.7,0,1.2,0,1.4,0c0.2,0,0.2,0,0.2-0.2v-1.6h-3v2.8h-1v-7.8h4.9V38.2z M165.4,32.5v1.2h3v-1.2H165.4z M168.4,35.8v-1.3h-3v1.3
		H168.4z M172.4,32.7c-1.3,0-1.7-0.3-1.7-1.5v-4.6h1V29c1.2-0.4,2.5-0.9,3.2-1.3l0.7,0.8c-1.1,0.5-2.6,1-4,1.4v1.4
		c0,0.4,0.1,0.5,0.7,0.5h2.2c0.5,0,0.6-0.2,0.7-1.6c0.2,0.2,0.6,0.3,0.9,0.4c-0.1,1.7-0.4,2.2-1.5,2.2H172.4z M174.8,38.4
		c0.6,0,0.7-0.3,0.8-1.8c0.2,0.2,0.6,0.3,0.9,0.4c-0.1,1.9-0.4,2.4-1.6,2.4h-2.4c-1.3,0-1.7-0.3-1.7-1.5v-4.7h1v2.2
		c1.3-0.4,2.6-0.9,3.4-1.5l0.7,0.8c-1.1,0.6-2.7,1.2-4.1,1.6v1.6c0,0.5,0.1,0.5,0.8,0.5H174.8z" />
		<path fill="#646464"
			d="M189.7,29.7c0,0,0,0.4,0,0.5c-0.3,5.7-0.6,7.8-1.2,8.5c-0.3,0.4-0.7,0.5-1.2,0.6c-0.5,0-1.4,0-2.2,0
		c0-0.3-0.1-0.8-0.4-1.1c1,0.1,1.8,0.1,2.2,0.1c0.3,0,0.5,0,0.6-0.2c0.5-0.5,0.8-2.5,1.1-7.4h-4.8c-0.2,2.9-1.1,6.3-5.2,8.8
		c-0.2-0.3-0.5-0.7-0.8-0.8c3.8-2.3,4.7-5.3,4.9-7.9h-4.5v-1h4.5c0-0.2,0-0.4,0-0.6v-2.4h1.1v2.4c0,0.2,0,0.4,0,0.6H189.7z" />
	</g>
</svg>