<?xml version="1.0" encoding="utf-8"?>
<!-- Generator: Adobe Illustrator 25.0.0, SVG Export Plug-In . SVG Version: 6.00 Build 0)  -->
<svg version="1.1" id="图层_1" xmlns="http://www.w3.org/2000/svg" xmlns:xlink="http://www.w3.org/1999/xlink" x="0px"
	y="0px" viewBox="0 0 1080 1920" enable-background="new 0 0 1080 1920" xml:space="preserve">
	<g>
		<path fill="#E65A2A" d="M830.9,937.5l-285.7,168.8c-8.8,5.2-11.7,16.5-6.5,25.3l14.5,24.5c5.2,8.8,16.5,11.7,25.3,6.5l285.7-168.8
		c8.8-5.2,11.7-16.5,6.5-25.3L856.3,944C851.1,935.2,839.7,932.3,830.9,937.5z" />
		<g>
			<path fill="#FFFFFF" d="M654.8,1084.1l-20.9,12.1l-6.1-10.6l8.1-4.7l-5.5-9.5l2.7-1.4l1.9,3.2l13-7.6l1.4,2.4l-13,7.6l2.2,3.8
			l10.1-5.9L654.8,1084.1z M647.5,1077.4l-15.9,9.2l3.4,5.8l15.9-9.2L647.5,1077.4z M634.4,1097.5l2.7-0.5c0.4,2.7,0.6,8,0.4,10.7
			l-3.1,0C634.9,1105.2,634.8,1100.1,634.4,1097.5z M642.3,1094.1c1.5,1.5,4.5,4.6,5.7,6.3l-2.1,2.1c-1.4-2-4.2-5.1-5.8-6.6
			L642.3,1094.1z M648.8,1089.9c1.8,1.2,5.1,4,6.6,5.6l-1.9,2.2c-1.6-1.8-4.8-4.6-6.6-5.8L648.8,1089.9z M663.9,1090.1l-1,2.9
			c-2.3-1.7-6.8-4-9.2-4.9l1.4-2.4C657.3,1086.5,661.7,1088.7,663.9,1090.1z" />
			<path fill="#FFFFFF" d="M681.6,1076l7.6-4.4l-4.6-7.8l2.6-1.4l6.9,11.9l-2.5,1.5l-1-1.8l-20.2,11.8l-5.9-10.2l2.6-1.4l4.5,7.7
			l7.7-4.5l-6.1-10.4l-13.3,7.7l-1.4-2.4l13.3-7.7l-3.3-5.6l-11.1,6.5l-1.4-2.4l11.1-6.5l-3-5.1l2.5-1.4l2.9,5l11.1-6.5l1.4,2.4
			l-11.1,6.5l3.3,5.6l13.3-7.7l1.4,2.4l-13.3,7.7L681.6,1076z" />
			<path fill="#FFFFFF" d="M720.5,1035c0,1.1,0.1,1.9,0.2,2.7c0,0.2-0.1,0.3-0.4,0.4c-7,1.2-12.1,1.2-17,0.1l3.1,5.3l-2.6,1.5
			l-3.1-5.3c-1.6,5-4.3,10.1-8.5,15.3l-2.5-1.6c4.3-4.6,7.2-9.7,8.9-14.2l-10.5,6.1l-1.3-2.2l11.9-6.9l-2-3.4l2.7-1.4l1.9,3.3
			l11.9-6.9l1.3,2.2l-10.6,6.2C708.7,1036.8,714.4,1036.5,720.5,1035z M715.2,1039.8l6.4,11l-18.9,11l-6.4-11L715.2,1039.8z
			 M700.1,1051.3l1.4,2.4l13.8-8l-1.4-2.4L700.1,1051.3z M700.3,1066.5L727,1051l1.3,2.2l-26.6,15.5L700.3,1066.5z M717.9,1050.2
			l-1.5-2.5l-13.8,8l1.5,2.5L717.9,1050.2z" />
			<path fill="#FFFFFF" d="M734.8,1027.8c0,1.1-0.1,2.1-0.2,3.2l15.2-8.8l8.7,14.9l-2.4,1.4l-0.9-1.5l-13.6,7.9l0.9,1.5l-2.4,1.4
			l-6.6-11.4c-0.7,2.4-1.7,5-3,7.7l-2.6-1c2.6-5.1,3.9-9.5,4.1-13.7l-7.6,4.4l-1.2-2l8.9-5.2c0-1-0.1-2-0.3-3l-7,4.1l-1.2-2l7.8-4.5
			c-0.2-0.9-0.5-1.9-0.7-2.8c-3,2-6.1,3.9-9.1,5.7l-1.4-2.1c8-4.8,16.2-10.4,22.6-15.1l1.5,2.1c-3.3,2.4-7.1,5-11.1,7.6
			c0.3,1,0.6,2,0.8,3l11.9-6.9l1.2,2l-12.6,7.3c0.2,1,0.3,2,0.3,3l16.5-9.6l1.2,2L734.8,1027.8z M748.6,1025.6l-13.6,7.9l1.2,2.1
			l13.6-7.9L748.6,1025.6z M738.3,1039.3l13.6-7.9l-1.1-1.9l-13.6,7.9L738.3,1039.3z M754.1,1035l-1-1.8l-13.6,7.9l1,1.8L754.1,1035
			z" />
			<path fill="#FFFFFF" d="M778.9,991.9l11.8,20.3c1.9,3.2,1.2,4.1-2.6,7l-1.5,1.1l-2.4-2l2-1.4c2.5-1.7,2.5-2.1,1.4-4.1l-9.9-17.1
			l-8.3,4.8c0.9,1.6,1.5,3,2,4.5c3.8,0.6,10.1,2.4,13.2,3.8l-0.5,3.2c-2.9-1.5-8.4-3.1-12.2-4c0.5,3.7-0.3,7.7-2.5,13l-2.9-1.2
			c3.5-8.2,3.2-12.4,0.2-17.8l-8.3,4.8l12.9,22.2l-2.5,1.5l-14.3-24.6l10.8-6.3l-2.9-5.1l2.6-1.4l2.9,5L778.9,991.9z" />
			<path fill="#FFFFFF" d="M797.5,979.5l-12.3,7.2l-1.4-2.5l27.2-15.8l1.4,2.5l-12.1,7c0.4,1.5,0.9,3.5,1.4,5.1l10.2-5.9l8,13.7
			l-2.6,1.5l-6.5-11.3l-15.9,9.3l6.6,11.4l-2.6,1.5l-8-13.8l8.1-4.7C798.5,983,798,981,797.5,979.5z M807.4,990.8
			c3.6,6.4,3.1,11.1-6.9,21.9l-2.7-1.7c9.5-9.6,9.8-13.5,7-18.9c-0.4-0.8-2.1-3.7-2.1-3.7l2.6-1.4C805.3,987,807,990,807.4,990.8z
			 M826.1,994.1l0.5,3.3c-4.6-0.2-12.1,0.2-16.4,0.5l-0.1-2.7C814.3,994.6,821.8,994.1,826.1,994.1z" />
		</g>
		<g id="闪烁">
			<animate accumulate="none" additive="replace" attributeName="opacity" begin="0" calcMode="spline" dur="2s"
				fill="freeze" keySplines=".42,0,.58,1;.42,0,.58,1;.42,0,.58,1" repeatCount="indefinite" restart="always"
				values="0;1;1;0"></animate>
			<circle opacity="0.59" fill="none" stroke="#FBF7E4" stroke-width="2.5946" stroke-miterlimit="10" cx="597.7"
				cy="1113.3" r="22.1" />
			<circle fill="#FFFFFF" cx="597.7" cy="1113.3" r="12.8" />
		</g>

		<rect id="热区" x="303.4" y="449.8" transform="matrix(0.861 -0.5086 0.5086 0.861 -360.4808 423.7918)" opacity="0"
			fill="#E65A2A" width="583.3" height="843.1" />
	</g>
</svg>